<svg width="28" height="21" viewBox="0 0 28 21" fill="none" xmlns="http://www.w3.org/2000/svg">
<path opacity="0.8" d="M3.79513 0V8.10495C5.01692 6.63367 6.4815 5.89306 8.18002 5.89306C9.05483 5.89306 9.83824 6.06183 10.541 6.3964C11.2458 6.72897 11.7727 7.15586 12.1285 7.67409C12.4863 8.19728 12.7281 8.7701 12.8588 9.4015C12.9886 10.0299 13.0534 11.0078 13.0534 12.3341V21H9.25732V13.1949C9.25732 11.6461 9.18851 10.6653 9.04402 10.2483C8.90865 9.83988 8.64009 9.48989 8.28224 9.25557C7.91659 9.00638 7.46149 8.88328 6.91203 8.88328C6.28295 8.88328 5.71874 9.04212 5.22825 9.35782C4.72695 9.67551 4.3672 10.15 4.13916 10.7844C3.90718 11.4198 3.7912 12.358 3.79513 13.5999L3.7912 21H0V0H3.79611H3.79513ZM18.7427 0V8.10495C19.9655 6.63367 21.4291 5.89306 23.1266 5.89306C23.9985 5.89306 24.7878 6.06183 25.4915 6.3964C26.1934 6.72897 26.7202 7.15586 27.0741 7.67409C27.4312 8.19381 27.6797 8.78157 27.8044 9.4015C27.9351 10.0299 28 11.0078 28 12.3341V21H24.2078V13.1949C24.2078 11.6461 24.1361 10.6653 23.9916 10.2483C23.8562 9.83932 23.5868 9.48914 23.2278 9.25557C22.8661 9.00638 22.4071 8.88328 21.8576 8.88328C21.2295 8.88328 20.6653 9.04212 20.1738 9.35782C19.6794 9.67551 19.3177 10.15 19.0867 10.7844C18.8587 11.4198 18.7427 12.358 18.7427 13.5999V21H14.9515V0H18.7427Z" fill="#FEFEFE"/>
</svg>
