<svg width="27" height="27" viewBox="0 0 27 27" fill="none" xmlns="http://www.w3.org/2000/svg">
<path d="M13.5 0C6.08505 0 0 6.08505 0 13.5C0 15.9472 0.659798 18.3295 1.911 20.4138L0 27L6.58624 25.089C8.67048 26.3402 11.0528 27 13.5 27C20.9149 27 27 20.9149 27 13.5C27 6.08505 20.9149 0 13.5 0ZM21.9404 19.2042L21.3123 19.8322C20.4237 20.7209 18.38 20.6505 17.0668 20.3969C12.7003 19.5535 7.60961 14.6192 6.62785 10.346C6.1417 8.22924 6.41011 6.38889 7.11214 5.68666L7.74021 5.05859C8.0869 4.7121 8.65009 4.71252 8.99636 5.05859L11.5091 7.5715C11.6768 7.73918 11.7686 7.96145 11.7686 8.19937C11.7686 8.43729 11.6768 8.65977 11.5091 8.82683L10.8812 9.45552C10.1891 10.1493 10.1891 11.2763 10.8812 11.9684L15.0305 16.0632C15.7247 16.7574 16.8482 16.7582 17.5434 16.0632L18.1715 15.4353C18.4958 15.1092 19.1014 15.1082 19.4283 15.4353L21.9404 17.9474C22.2815 18.2871 22.2945 18.8499 21.9404 19.2042Z" fill="white"/>
</svg>
