<svg width="90" height="90" xmlns="http://www.w3.org/2000/svg">
 <!-- Created with SVG Editor - http://github.com/mzalive/SVG Editor/ -->

 <g>
  <title>background</title>
  <rect fill="none" id="canvas_background" height="92" width="92" y="-1" x="-1"/>
  <g display="none" overflow="visible" y="0" x="0" height="100%" width="100%" id="canvasGrid">
   <rect fill="url(#gridpattern)" stroke-width="0" y="0" x="0" height="100%" width="100%"/>
  </g>
 </g>
 <g>
  <title>Layer 1</title>
  <g id="svg_49">
   <path id="svg_4" fill="#FBE2B6" d="m82.648969,47.244378c-0.027085,0.435876 0.022653,0.822949 0.149708,1.161761c0.126562,0.341274 0.318621,0.614589 0.57667,0.81896c0.261003,0.204863 0.575192,0.318621 0.942567,0.341274c0.348661,0.021668 0.63872,-0.042844 0.869191,-0.192552c0.233426,-0.146753 0.406279,-0.359003 0.519052,-0.636257c0.115235,0.214712 0.286119,0.393475 0.51265,0.536288c0.226039,0.142321 0.490489,0.223084 0.792859,0.241305c0.370329,0.023146 0.682548,-0.049246 0.936165,-0.216682c0.253617,-0.167436 0.449615,-0.395937 0.587996,-0.685503c0.137889,-0.286611 0.217667,-0.597845 0.23835,-0.932718c0.02807,-0.454934 -0.046784,-0.85875 -0.224561,-1.211499c-0.175315,-0.349892 -0.408249,-0.629511 -0.6988,-0.838855l-0.51265,0.530231c0.236873,0.151333 0.425485,0.348907 0.566328,0.592773c0.140843,0.243817 0.200923,0.531905 0.18024,0.864315c-0.021668,0.351123 -0.125085,0.63084 -0.310249,0.837673c-0.185165,0.21028 -0.430409,0.305817 -0.735242,0.287104c-0.296953,-0.018221 -0.523484,-0.140351 -0.679101,-0.365897c-0.152662,-0.225546 -0.226039,-0.521514 -0.219637,-0.887412c0.000492,-0.051807 0.00197,-0.122819 0.004925,-0.212841c0.005417,-0.087165 0.010342,-0.170243 0.015266,-0.249234c0.004925,-0.076282 0.007879,-0.126661 0.009357,-0.151185l-0.694368,-0.042893c-0.001477,0.024475 -0.003447,0.050379 -0.004925,0.077612c-0.001477,0.027233 -0.006402,0.082979 -0.014281,0.167239c-0.008372,0.087018 -0.022161,0.226974 -0.042351,0.419674c-0.023638,0.247707 -0.070422,0.471776 -0.140351,0.672207c-0.066974,0.200923 -0.172361,0.35851 -0.316159,0.472761c-0.141336,0.117205 -0.335857,0.167929 -0.583564,0.152662c-0.326993,-0.020191 -0.587996,-0.155125 -0.78301,-0.405294c-0.195014,-0.249677 -0.278239,-0.607695 -0.249184,-1.073512c0.02807,-0.457593 0.147245,-0.811179 0.35654,-1.060708c0.209788,-0.249529 0.446661,-0.41534 0.711604,-0.497433l-0.36048,-0.670286c-0.227024,0.087165 -0.442721,0.221459 -0.648076,0.402881c-0.202893,0.184377 -0.373284,0.42125 -0.511665,0.710766c-0.135919,0.292373 -0.21619,0.640148 -0.240813,1.043275z"/>
   <path id="svg_5" fill="#FBE2B6" d="m82.625823,49.716572l-0.141828,0.743613l1.268575,0.713081l-0.471776,2.472638l-1.442906,0.199938l-0.141828,0.744106l6.160172,-0.834226l0.190582,-0.99723l-5.420991,-3.041921zm1.755125,1.809788l2.820314,1.579317l-3.206402,0.443213l0.386088,-2.02253z"/>
   <path id="svg_6" fill="#FBE2B6" d="m81.584764,54.895274l-0.227516,0.692398l2.738073,0.899231l-3.601354,1.725577l-0.293998,0.894306l3.783564,-1.794521l1.881687,3.43638l0.286611,-0.87116l-1.823084,-3.313758l2.628747,0.863773l0.227516,-0.692398l-5.600246,-1.839828z"/>
   <path id="svg_7" fill="#FBE2B6" d="m80.172391,59.177206l-0.32847,0.682548l1.042536,1.014958l-1.092275,2.268267l-1.445368,-0.177778l-0.328963,0.682548l6.168544,0.777593l0.440259,-0.914989l-4.456264,-4.333149zm1.230656,2.200308l2.31899,2.251031l-3.212312,-0.395937l0.893321,-1.855094z"/>
   <path id="svg_8" fill="#FBE2B6" d="m76.659187,65.490534c-0.238843,0.365897 -0.38658,0.72687 -0.443213,1.083903c-0.058603,0.359495 -0.0261,0.691905 0.097507,0.99723c0.12607,0.30631 0.343244,0.560419 0.652016,0.761342c0.292521,0.191074 0.576177,0.277747 0.85097,0.261496c0.275285,-0.012804 0.530379,-0.111788 0.765774,-0.297445c-0.00591,0.243767 0.054171,0.483103 0.181225,0.71899c0.126562,0.235396 0.316651,0.435826 0.570268,0.601293c0.311234,0.202401 0.618036,0.293506 0.921391,0.272822c0.303847,-0.020191 0.587011,-0.122622 0.849985,-0.305817c0.261496,-0.181717 0.484087,-0.412681 0.667282,-0.693875c0.249184,-0.381656 0.383133,-0.770206 0.402832,-1.164666c0.020191,-0.39052 -0.044321,-0.748538 -0.194029,-1.074054l-0.707664,0.20831c0.131487,0.248692 0.197969,0.513635 0.199938,0.794829c0.002462,0.281687 -0.087658,0.561896 -0.269375,0.840628c-0.192552,0.294983 -0.420068,0.487042 -0.683533,0.575685c-0.264943,0.091597 -0.524962,0.053678 -0.78104,-0.113266c-0.249677,-0.162019 -0.386088,-0.379686 -0.410219,-0.653001c-0.021668,-0.271345 0.060572,-0.564851 0.246722,-0.880025c0.0261,-0.044814 0.062542,-0.105879 0.109326,-0.182702c0.047769,-0.072884 0.093075,-0.142813 0.136411,-0.209295c0.041859,-0.06402 0.069437,-0.105879 0.082733,-0.126562l-0.583072,-0.380179c-0.013296,0.020683 -0.027578,0.042351 -0.042351,0.065497c-0.015266,0.022653 -0.046784,0.068944 -0.095045,0.138381c-0.050231,0.071407 -0.131487,0.18615 -0.24426,0.344229c-0.142321,0.203386 -0.293506,0.375254 -0.453555,0.515605c-0.157587,0.141336 -0.326993,0.226531 -0.508218,0.254601c-0.180733,0.032502 -0.375254,-0.019206 -0.583072,-0.155125c-0.2743,-0.178763 -0.434841,-0.4245 -0.481133,-0.738196c-0.046291,-0.313697 0.057618,-0.665805 0.312712,-1.056817c0.250662,-0.384118 0.528409,-0.63281 0.833733,-0.746568c0.305817,-0.113758 0.593906,-0.140843 0.864758,-0.081748l0.017236,-0.76085c-0.24032,-0.03595 -0.494922,-0.025608 -0.762819,0.031025c-0.267405,0.06008 -0.532841,0.18221 -0.795814,0.365897c-0.262481,0.187135 -0.503786,0.450108 -0.724408,0.788427z"/>
   <path id="svg_9" fill="#FBE2B6" d="m75.386673,67.663264l-0.491474,0.57667l0.750508,1.245922l-1.632502,1.916159l-1.353278,-0.53875l-0.490982,0.57667l5.768175,2.31899l0.658418,-0.773161l-3.208864,-5.322499zm0.63084,2.440135l1.671407,2.766636l-3.006464,-1.199138l1.335057,-1.567498z"/>
   <path id="svg_10" fill="#FBE2B6" d="m70.775777,72.683393l-0.535303,0.493937l3.529948,3.822469l-1.477378,1.363127l0.469314,0.508218l3.490059,-3.220191l-0.469314,-0.508218l-1.477378,1.363127l-3.529948,-3.822469z"/>
   <path id="svg_11" fill="#FBE2B6" d="m68.698091,74.545874l-1.888581,1.362635c-0.046784,0.03398 -0.098984,0.074854 -0.158079,0.1241c-0.061065,0.050723 -0.119175,0.102924 -0.174823,0.156602c-0.344229,0.339304 -0.517575,0.716528 -0.520037,1.132656c-0.003447,0.419575 0.132472,0.819452 0.407264,1.200123c0.274792,0.380671 0.611142,0.634287 1.009049,0.76085c0.399384,0.129024 0.813543,0.084703 1.24149,-0.133456c0.069929,-0.033487 0.137889,-0.072392 0.203878,-0.116713c0.067467,-0.041859 0.123115,-0.078793 0.167436,-0.110803l1.298123,-0.936165l1.274977,1.765466l0.590951,-0.42647l-3.451647,-4.778824zm-0.185657,0.987381l1.366082,1.891536l-1.277932,0.921884c-0.042351,0.030532 -0.091105,0.062542 -0.147738,0.096522c-0.058603,0.035457 -0.11622,0.065005 -0.172853,0.089135c-0.266913,0.115235 -0.51659,0.119175 -0.749523,0.010834c-0.230963,-0.105386 -0.41859,-0.258049 -0.562388,-0.457002c-0.143798,-0.199446 -0.230471,-0.42647 -0.259526,-0.681071c-0.027578,-0.252632 0.055155,-0.487535 0.248692,-0.704709c0.040382,-0.045799 0.087165,-0.091105 0.139366,-0.135426c0.049738,-0.042844 0.095537,-0.079286 0.137889,-0.109818l1.277932,-0.921884z"/>
   <path id="svg_12" fill="#FBE2B6" d="m62.847183,78.436302l-0.662358,0.303847l2.169775,4.728593l-2.857741,1.309942l-2.169775,-4.728593l-0.662358,0.303355l2.457864,5.357956l4.182949,-1.917144l-2.458356,-5.357956z"/>
   <path id="svg_13" fill="#FBE2B6" d="m57.87433,80.629223l-0.697322,0.211757l0.633303,2.083595l-1.531548,0.465374c-0.052201,0.015759 -0.115235,0.037919 -0.189597,0.06599c-0.073869,0.02807 -0.14626,0.058603 -0.21619,0.091105c-0.432872,0.208803 -0.71899,0.509695 -0.859341,0.902678c-0.138874,0.395937 -0.140351,0.818467 -0.00394,1.26759c0.136411,0.449123 0.372299,0.798276 0.707664,1.047461c0.333395,0.252139 0.739181,0.344229 1.217852,0.27627c0.076824,-0.009357 0.153647,-0.024131 0.230471,-0.044321c0.074361,-0.017236 0.139366,-0.03398 0.194029,-0.050723l2.22887,-0.676639l-1.714251,-5.640136zm0.137396,2.957218l0.678609,2.23281l-1.508403,0.457987c-0.049246,0.014774 -0.106371,0.029548 -0.170883,0.043336c-0.066482,0.014281 -0.130994,0.024131 -0.192059,0.02807c-0.290058,0.022653 -0.527424,-0.055155 -0.712588,-0.232441c-0.184672,-0.175315 -0.312219,-0.380179 -0.383626,-0.615082c-0.071407,-0.234903 -0.079778,-0.477685 -0.024623,-0.728347c0.055648,-0.248199 0.21028,-0.443213 0.463404,-0.586026c0.053678,-0.030532 0.112281,-0.05811 0.175808,-0.083226c0.061065,-0.024131 0.116713,-0.043829 0.165959,-0.059095l1.508403,-0.457987z"/>
   <path id="svg_14" fill="#FBE2B6" d="m50.810495,82.255816c-0.582087,0.092582 -1.054848,0.299415 -1.418283,0.619514c-0.363435,0.320591 -0.614097,0.7249 -0.751985,1.213912c-0.137396,0.489012 -0.158572,1.032687 -0.063527,1.631025c0.095537,0.598338 0.284149,1.108526 0.567313,1.530563c0.282672,0.422038 0.646599,0.72884 1.09129,0.920406c0.445183,0.191567 0.958818,0.241305 1.540905,0.148723c0.579625,-0.09209 1.052385,-0.298923 1.418775,-0.619514c0.363435,-0.320591 0.614097,-0.7249 0.751493,-1.213912c0.137889,-0.489012 0.159064,-1.032687 0.063527,-1.631025c-0.095045,-0.598338 -0.284149,-1.108526 -0.566821,-1.530563c-0.282672,-0.422038 -0.646599,-0.72884 -1.091782,-0.920406c-0.447645,-0.191074 -0.96128,-0.240813 -1.540905,-0.148723zm0.109326,0.687473c0.434349,-0.066482 0.81305,-0.024623 1.135119,0.12607c0.320098,0.150693 0.580609,0.390028 0.782025,0.717021c0.201416,0.329948 0.337827,0.72687 0.409234,1.190766c0.071407,0.466851 0.06402,0.887904 -0.022653,1.26365c-0.089135,0.376239 -0.262481,0.685503 -0.519544,0.928286c-0.257064,0.242782 -0.60277,0.397415 -1.037119,0.463404c-0.434349,0.066482 -0.811573,0.024131 -1.131179,-0.126562c-0.322561,-0.150693 -0.583072,-0.389535 -0.781533,-0.717021c-0.201416,-0.327485 -0.339304,-0.723915 -0.413173,-1.190274c-0.073869,-0.463404 -0.066482,-0.884949 0.022161,-1.26365c0.086673,-0.375746 0.260018,-0.685503 0.519544,-0.928286c0.257064,-0.242782 0.60277,-0.397415 1.037119,-0.463404z"/>
   <path id="svg_15" fill="#FBE2B6" d="m47.814373,82.756154l-3.723386,0.114743l0.021373,0.691905l2.995088,-0.092582l0.060917,1.971807l-2.504057,0.077316l0.021373,0.691905l2.504057,-0.077316l0.057027,1.845245l-2.995088,0.092582l0.021373,0.691413l3.723533,-0.115235l-0.18221,-5.891782z"/>
   <path id="svg_16" fill="#FBE2B6" d="m43.354416,82.839872l-0.72554,-0.067467l-0.26647,2.86956l-2.4849,-3.124654l-0.937495,-0.087165l2.593143,3.287165l-2.93028,2.601662l0.913019,0.084703l2.82381,-2.516959l-0.255882,2.755309l0.72554,0.066974l0.545054,-5.869129z"/>
   <path id="svg_17" fill="#FBE2B6" d="m37.013363,81.986933l-0.71185,-0.155617l-1.111579,5.083164l-1.963632,-0.429424l-0.147787,0.676147l4.639114,1.013481l0.147836,-0.676147l-1.963632,-0.428932l1.11153,-5.082672z"/>
   <path id="svg_18" fill="#FBE2B6" d="m29.637457,81.285178c-0.168175,-0.071407 -0.33896,-0.095537 -0.512404,-0.071899c-0.175956,0.023146 -0.335365,0.086673 -0.478276,0.192059c-0.146507,0.106371 -0.257802,0.248692 -0.333986,0.426962c-0.077267,0.180733 -0.103269,0.359495 -0.078006,0.536781c0.021668,0.17827 0.085589,0.337335 0.191813,0.477685c0.102579,0.141828 0.238006,0.248692 0.406131,0.320591c0.178172,0.076331 0.357772,0.103909 0.53875,0.083226c0.179895,-0.018221 0.343047,-0.080271 0.489554,-0.187135c0.145423,-0.103909 0.256768,-0.24623 0.333986,-0.426962c0.076183,-0.17827 0.102185,-0.357033 0.078006,-0.536288c-0.025214,-0.177285 -0.092927,-0.338319 -0.20309,-0.483103c-0.110163,-0.145275 -0.254306,-0.255586 -0.432478,-0.331918z"/>
   <path id="svg_19" fill="#FBE2B6" d="m23.870956,76.254215c-0.361465,-0.244752 -0.720172,-0.399384 -1.07627,-0.462419c-0.358313,-0.065005 -0.691265,-0.038412 -0.998855,0.079286c-0.309117,0.12016 -0.567116,0.332902 -0.773949,0.637735c-0.196147,0.289074 -0.288532,0.57076 -0.277107,0.845552c0.007584,0.275777 0.102038,0.532348 0.283361,0.770699c-0.243718,-0.009849 -0.484531,0.045799 -0.722487,0.167929c-0.237956,0.122622 -0.441982,0.308772 -0.612078,0.559434c-0.208409,0.307295 -0.305128,0.612619 -0.290157,0.915974c0.014971,0.303847 0.111837,0.588489 0.2906,0.854909c0.176547,0.264943 0.403767,0.491474 0.681613,0.679594c0.377224,0.256079 0.762967,0.396922 1.157181,0.423515c0.390422,0.027578 0.749769,-0.030532 1.077993,-0.174331l-0.19526,-0.710619c-0.250859,0.126562 -0.517131,0.188119 -0.79872,0.185165c-0.281637,-0.002955 -0.560222,-0.097507 -0.835802,-0.284641c-0.291388,-0.197476 -0.479212,-0.42844 -0.563373,-0.693383c-0.086427,-0.26642 -0.043829,-0.525946 0.127793,-0.77907c0.167042,-0.245737 0.38727,-0.378701 0.660733,-0.397415c0.271936,-0.016744 0.563866,0.070422 0.87574,0.261988c0.044469,0.027085 0.104746,0.064512 0.180782,0.112773c0.072293,0.049246 0.141188,0.09603 0.206685,0.140351c0.063281,0.042844 0.105042,0.070914 0.12538,0.084703l0.390766,-0.575685c-0.020339,-0.013789 -0.041761,-0.028563 -0.064364,-0.043829c-0.022604,-0.015266 -0.068156,-0.047769 -0.136608,-0.097507c-0.070766,-0.051216 -0.184032,-0.134441 -0.339846,-0.250169c-0.200923,-0.145768 -0.370034,-0.3004 -0.507282,-0.462419c-0.138775,-0.160049 -0.220671,-0.330933 -0.245688,-0.51265c-0.028858,-0.181225 0.026494,-0.374761 0.16591,-0.580117c0.183884,-0.270853 0.433118,-0.42647 0.747602,-0.467344c0.314534,-0.040874 0.664918,0.069929 1.051203,0.331918c0.379489,0.257064 0.623256,0.539243 0.731351,0.84703c0.108046,0.307295 0.129911,0.595383 0.065694,0.865251l0.760603,0.031025c0.040529,-0.239828 0.035014,-0.493937 -0.016547,-0.762819c-0.055402,-0.26839 -0.172459,-0.535796 -0.351271,-0.802216c-0.182555,-0.265436 -0.441046,-0.511665 -0.775328,-0.738196z"/>
   <path id="svg_20" fill="#FBE2B6" d="m21.731664,74.949198l-0.567658,-0.501323l-1.2604,0.727362l-1.887104,-1.666482l0.563866,-1.342444l-0.567658,-0.501323l-2.425017,5.722869l0.760997,0.671714l5.382973,-3.110372zm-2.452644,0.586519l-2.79771,1.619698l1.254294,-2.982826l1.543416,1.363127z"/>
   <path id="svg_21" fill="#FBE2B6" d="m17.820996,71.422205l-0.480591,-0.547615l-2.167116,1.899908l0.344672,-3.976608l-0.620991,-0.707664l-0.377568,4.168667l-3.917464,-0.12607l0.604789,0.68895l3.781841,0.114743l-2.080886,1.824069l0.480591,0.547615l4.432724,-3.885996z"/>
   <path id="svg_22" fill="#FBE2B6" d="m14.890371,68.078899l-0.422924,-0.628378l-1.403066,0.386088l-1.405971,-2.088027l0.884063,-1.157279l-0.422924,-0.628378l-3.789375,4.926562l0.566968,0.842598l5.993229,-1.653186zm-2.521243,-0.050723l-3.115691,0.862296l1.965749,-2.570637l1.149942,1.708341z"/>
   <path id="svg_23" fill="#FBE2B6" d="m11.231055,61.878345c-0.19526,-0.39052 -0.432625,-0.700769 -0.712145,-0.930255c-0.280702,-0.231948 -0.584007,-0.371807 -0.909917,-0.419575c-0.328372,-0.046291 -0.657335,0.012804 -0.986938,0.177285c-0.312515,0.15611 -0.531019,0.35654 -0.655562,0.601785c-0.128236,0.24426 -0.171573,0.51462 -0.130108,0.81108c-0.207522,-0.128039 -0.444937,-0.197476 -0.712244,-0.207325c-0.267307,-0.009849 -0.536485,0.053186 -0.807485,0.188612c-0.332065,0.165466 -0.565836,0.384611 -0.70136,0.656448c-0.135525,0.27233 -0.190483,0.568298 -0.164875,0.887904c0.024327,0.317144 0.111591,0.625916 0.261693,0.926316c0.20378,0.407756 0.471086,0.719483 0.801871,0.935673c0.327091,0.214712 0.668858,0.339797 1.0253,0.375746l0.177679,-0.716036c-0.280751,-0.012311 -0.543183,-0.088643 -0.787295,-0.228994c-0.244112,-0.140351 -0.440603,-0.359495 -0.589474,-0.657433c-0.157439,-0.314681 -0.208064,-0.608187 -0.151874,-0.880517c0.054958,-0.2743 0.219144,-0.479655 0.492607,-0.616559c0.266125,-0.132964 0.52309,-0.140843 0.770846,-0.023146c0.245343,0.11819 0.457101,0.337335 0.635272,0.656941c0.025657,0.045306 0.059785,0.107356 0.10253,0.187135c0.039052,0.077809 0.076282,0.15217 0.111641,0.223084c0.034177,0.068452 0.056731,0.113758 0.067713,0.135426l0.622616,-0.310742c-0.010982,-0.022161 -0.022604,-0.045306 -0.034817,-0.069929c-0.012164,-0.024131 -0.035999,-0.074854 -0.071357,-0.151677c-0.036639,-0.079286 -0.094601,-0.207325 -0.173887,-0.384611c-0.103761,-0.225546 -0.175759,-0.442721 -0.215993,-0.651524c-0.042696,-0.207325 -0.030483,-0.39643 0.036688,-0.567313c0.063478,-0.172361 0.20634,-0.313697 0.428489,-0.4245c0.293013,-0.14626 0.586568,-0.160542 0.880714,-0.041859c0.294195,0.11819 0.545596,0.38658 0.7543,0.803693c0.205011,0.410219 0.279421,0.775623 0.223232,1.096707c-0.05619,0.320591 -0.178319,0.583072 -0.366291,0.78695l0.648126,0.398892c0.152564,-0.189104 0.272231,-0.413173 0.358954,-0.673192c0.083029,-0.261003 0.111739,-0.551554 0.086131,-0.87116c-0.029252,-0.321083 -0.134146,-0.662358 -0.31478,-1.02333z"/>
   <path id="svg_24" fill="#FBE2B6" d="m9.99183,59.674098l-0.247412,-0.715543l-1.455069,0.013296l-0.822505,-2.379563l1.151517,-0.891351l-0.247412,-0.716036l-4.927252,3.788981l0.331671,0.959803l6.216461,-0.059588zm-2.42354,-0.695845l-3.232502,0.033487l2.559803,-1.979686l0.672699,1.946199z"/>
   <path id="svg_25" fill="#FBE2B6" d="m8.01569,53.199736l-0.152958,-0.712096l-5.087207,1.090797l-0.42191,-1.964912l-0.676427,0.145275l0.996772,4.642413l0.676417,-0.144783l-0.4219,-1.965405l5.087212,-1.09129z"/>
   <path id="svg_26" fill="#FBE2B6" d="m7.457684,50.450829l-0.206439,-2.319975c-0.005072,-0.057125 -0.01374,-0.123607 -0.025953,-0.199446c-0.01241,-0.078301 -0.027479,-0.155125 -0.045109,-0.229978c-0.115728,-0.469264 -0.351665,-0.811327 -0.707762,-1.026236c-0.359101,-0.217421 -0.772422,-0.305325 -1.239963,-0.263761c-0.467541,0.041564 -0.857519,0.200874 -1.169837,0.477981c-0.315075,0.277304 -0.488273,0.655906 -0.519594,1.135069c-0.006796,0.077316 -0.008076,0.155617 -0.003743,0.234903c0.001576,0.079286 0.004777,0.145768 0.009603,0.200431l0.141828,1.594091l-2.169199,0.193044l0.064576,0.725885l5.871591,-0.522007zm-0.75366,-0.66482l-2.324211,0.206833l-0.139661,-1.56996c-0.00458,-0.051708 -0.007091,-0.110311 -0.007436,-0.175808c-0.000591,-0.068452 0.003201,-0.133456 0.011474,-0.194521c0.037378,-0.288089 0.16197,-0.504771 0.373727,-0.649504c0.209049,-0.144586 0.435925,-0.227762 0.680579,-0.249529c0.244654,-0.021717 0.483989,0.019994 0.718006,0.125232c0.231308,0.105485 0.390816,0.296608 0.478473,0.573863c0.01891,0.058603 0.034127,0.121637 0.045602,0.189104c0.011228,0.065005 0.019157,0.123115 0.023737,0.174823l0.139711,1.569468z"/>
   <path id="svg_27" fill="#FBE2B6" d="m7.082627,43.380198l0.075396,-0.724752l-5.17453,-0.542986l0.325235,-3.126968l5.174515,0.542986l0.075396,-0.724752l-5.862565,-0.61518l-0.475996,4.576473l5.86255,0.61518z"/>
   <path id="svg_28" fill="#FBE2B6" d="m7.724055,37.923159l0.174577,-0.707418l-2.114472,-0.521367l0.383527,-1.553955c0.013099,-0.052989 0.026445,-0.118535 0.040135,-0.196688c0.013641,-0.078153 0.024327,-0.155617 0.032059,-0.232392c0.042253,-0.47867 -0.069831,-0.878744 -0.336251,-1.200222c-0.26908,-0.322118 -0.63148,-0.539341 -1.087202,-0.651721c-0.455771,-0.112379 -0.876331,-0.08815 -1.261779,0.072588c-0.387418,0.157439 -0.674093,0.459169 -0.860065,0.905239c-0.031562,0.070914 -0.058145,0.144438 -0.079759,0.220622c-0.023608,0.072884 -0.042278,0.13715 -0.056012,0.192798l-0.558114,2.261373l5.723356,1.411142zm-2.611561,-1.394398l-2.2655,-0.558547l0.377608,-1.53012c0.012459,-0.050329 0.029154,-0.106667 0.050132,-0.168914c0.021668,-0.064955 0.046291,-0.124937 0.073918,-0.179945c0.128975,-0.260511 0.317144,-0.424943 0.564457,-0.493247c0.244752,-0.068994 0.486303,-0.074066 0.724801,-0.015266c0.238449,0.0588 0.45129,0.175906 0.638473,0.35137c0.184574,0.174823 0.273315,0.40751 0.266223,0.698061c-0.001133,0.061557 -0.007239,0.126119 -0.01827,0.193684c-0.010391,0.064857 -0.021816,0.122475 -0.034226,0.172853l-0.377618,1.530071z"/>
   <path id="svg_29" fill="#FBE2B6" d="m9.899002,31.072312c0.217519,-0.547861 0.281243,-1.059821 0.191271,-1.535882c-0.089972,-0.47606 -0.310052,-0.897999 -0.66024,-1.265866c-0.350188,-0.367867 -0.806845,-0.66349 -1.370022,-0.886821c-0.563226,-0.22333 -1.09843,-0.321083 -1.605713,-0.293259c-0.507233,0.027873 -0.956898,0.184229 -1.348944,0.469117c-0.391998,0.284888 -0.696781,0.701311 -0.914251,1.249172c-0.216485,0.545349 -0.280259,1.057359 -0.191271,1.535931c0.089972,0.476011 0.310052,0.897999 0.66024,1.265866c0.350188,0.367867 0.806845,0.663441 1.370022,0.886771c0.563176,0.22333 1.09843,0.321083 1.605713,0.293259c0.507233,-0.027824 0.956898,-0.18418 1.348944,-0.469067c0.393032,-0.287448 0.697765,-0.703872 0.914251,-1.249221zm-0.646894,-0.256522c-0.164629,0.407362 -0.393918,0.711308 -0.687867,0.911838c-0.292915,0.197969 -0.63148,0.300006 -1.015648,0.306211c-0.386679,0.005171 -0.797685,-0.080025 -1.233019,-0.255586c-0.437895,-0.176547 -0.796307,-0.397956 -1.075235,-0.66418c-0.277993,-0.268784 -0.455673,-0.575586 -0.533136,-0.920406c-0.077464,-0.344869 -0.033832,-0.72096 0.130797,-1.128323c0.164629,-0.407412 0.393426,-0.710077 0.68634,-0.908046c0.293949,-0.20048 0.632465,-0.302567 1.015648,-0.306211c0.384167,-0.006205 0.795666,0.07771 1.234546,0.251794c0.436368,0.173001 0.79478,0.394411 1.075235,0.66418c0.278978,0.266223 0.456707,0.573026 0.533136,0.920406c0.077464,0.344869 0.033832,0.72096 -0.130797,1.128323z"/>
   <path id="svg_30" fill="#FBE2B6" d="m10.995265,28.205609l1.812004,-3.254762l-0.604592,-0.336251l-1.457581,2.61811l-1.724346,-0.959064l1.21864,-2.188883l-0.604592,-0.3363l-1.21864,2.188932l-1.613444,-0.897359l1.457581,-2.61811l-0.604592,-0.336251l-1.812004,3.254712l5.151567,2.865226z"/>
   <path id="svg_31" fill="#FBE2B6" d="m13.099642,24.472472l0.428735,-0.589178l-2.330908,-1.6947l3.956861,-0.539391l0.554066,-0.761293l-4.151678,0.549634l-0.738984,-3.847288l-0.539538,0.741397l0.720616,3.712502l-2.238178,-1.627282l-0.428784,0.589129l4.767793,3.46647z"/>
   <path id="svg_32" fill="#FBE2B6" d="m17.026266,19.476818l0.49635,-0.533481l-3.811142,-3.542013l1.369037,-1.471567l-0.506741,-0.470988l-3.234423,3.476664l0.50679,0.470988l1.369037,-1.471616l3.811093,3.542013z"/>
   <path id="svg_33" fill="#FBE2B6" d="m21.402061,13.424691c0.147098,-0.108637 0.254257,-0.243718 0.321527,-0.405294c0.069388,-0.163201 0.094946,-0.333001 0.076528,-0.5094c-0.017778,-0.180191 -0.08426,-0.348218 -0.199397,-0.504032c-0.116811,-0.15803 -0.25795,-0.270951 -0.423416,-0.338713c-0.164875,-0.071653 -0.334774,-0.097162 -0.509646,-0.076627c-0.174281,0.016694 -0.334971,0.079384 -0.482068,0.187972c-0.155863,0.115088 -0.270705,0.255833 -0.344524,0.422284c-0.075445,0.164235 -0.104254,0.336497 -0.086476,0.516688c0.016202,0.178024 0.082684,0.346051 0.199446,0.504081c0.115186,0.155814 0.256325,0.268735 0.423416,0.338713c0.165466,0.067812 0.338615,0.090908 0.519495,0.069338c0.18088,-0.021619 0.349252,-0.089923 0.505115,-0.205011z"/>
   <path id="svg_34" fill="#FBE2B6" d="m28.54661,11.033703c0.394164,-0.187824 0.7086,-0.41928 0.943256,-0.694318c0.237119,-0.27622 0.382542,-0.576768 0.43622,-0.901644c0.052545,-0.327288 -0.000542,-0.657236 -0.159114,-0.989745c-0.150397,-0.315322 -0.347085,-0.537519 -0.590065,-0.666593c-0.241699,-0.132718 -0.511173,-0.181127 -0.80852,-0.145275c0.131979,-0.205011 0.205405,-0.440997 0.220129,-0.708009c0.014774,-0.267011 -0.043041,-0.537224 -0.173444,-0.810637c-0.159803,-0.334971 -0.374466,-0.572779 -0.644087,-0.713376c-0.269671,-0.140548 -0.564555,-0.201071 -0.884801,-0.181471c-0.317784,0.018369 -0.628181,0.099772 -0.931191,0.244161c-0.41145,0.196048 -0.728249,0.457347 -0.950446,0.783897c-0.220917,0.322906 -0.352404,0.662161 -0.39446,1.017716l0.71249,0.191074c0.017433,-0.280357 0.09859,-0.541262 0.243521,-0.782616c0.144882,-0.241354 0.367621,-0.43361 0.668218,-0.576817c0.317833,-0.151431 0.612275,-0.19654 0.883373,-0.135279c0.273561,0.060129 0.476159,0.228107 0.607744,0.503983c0.128039,0.268489 0.131191,0.525454 0.009406,0.770945c-0.122967,0.242979 -0.346002,0.450502 -0.669104,0.622567c-0.045602,0.024771 -0.108489,0.057765 -0.188612,0.098984c-0.078843,0.037575 -0.153992,0.073376 -0.225448,0.107405c-0.068994,0.032847 -0.114546,0.054564 -0.136707,0.065152l0.299563,0.628132c0.022161,-0.010588 0.045552,-0.021717 0.070225,-0.033487c0.024623,-0.011721 0.075691,-0.034571 0.153253,-0.068501c0.080025,-0.035063 0.209246,-0.090612 0.387713,-0.16655c0.227713,-0.099477 0.446267,-0.167338 0.655759,-0.203632c0.208261,-0.038806 0.397168,-0.022998 0.566771,0.047325c0.170933,0.066728 0.309806,0.212151 0.416719,0.43627c0.140991,0.295623 0.14956,0.589277 0.025657,0.881108c-0.123853,0.291782 -0.396479,0.538061 -0.817729,0.738787c-0.413912,0.197181 -0.780843,0.264697 -1.100745,0.202499c-0.319951,-0.062198 -0.580068,-0.189154 -0.780351,-0.380917l-0.411203,0.640295c0.186347,0.15611 0.408643,0.279914 0.666987,0.371462c0.259625,0.087904 0.549535,0.122081 0.869781,0.10253c0.321527,-0.023244 0.664623,-0.121687 1.02924,-0.295426z"/>
   <path id="svg_35" fill="#FBE2B6" d="m30.8591,9.783989l0.720369,-0.233672l0.013937,-1.454823l2.394731,-0.776805l0.869929,1.168113l0.720369,-0.233672l-3.697335,-4.997772l-0.965663,0.313253l-0.056337,6.215377zm0.74125,-2.409455l0.026544,-3.231961l1.932065,2.596639l-1.958609,0.635322z"/>
   <path id="svg_36" fill="#FBE2B6" d="m35.866032,8.19768l0.716282,-0.133752l-0.529344,-2.832822l3.245602,2.325737l0.925528,-0.172755l-3.394177,-2.452102l2.10615,-3.304022l-0.901397,0.168278l-2.026814,3.193411l-0.508316,-2.720138l-0.716282,0.133717l1.08277,5.794448z"/>
   <path id="svg_37" fill="#FBE2B6" d="m40.12802,7.374189l0.756023,-0.04378l0.381951,-1.403952l2.513364,-0.145522l0.545694,1.350225l0.756073,-0.04378l-2.310963,-5.770795l-1.013481,0.058696l-1.628661,5.998907zm1.327276,-2.143478l0.844272,-3.120089l1.211351,3.001061l-2.055623,0.119027z"/>
   <path id="svg_38" fill="#FBE2B6" d="m47.542043,7.36434c0.435334,0.031813 0.823392,-0.01374 1.163681,-0.136608c0.342752,-0.122721 0.618036,-0.311924 0.825854,-0.567658c0.207818,-0.258443 0.325023,-0.5714 0.352108,-0.938824c0.0261,-0.348366 -0.034965,-0.63872 -0.181717,-0.871111c-0.144291,-0.234903 -0.354078,-0.410317 -0.630348,-0.526291c0.21619,-0.112773 0.396922,-0.281539 0.542198,-0.506248c0.145275,-0.224709 0.228994,-0.488126 0.251154,-0.790239c0.027578,-0.370142 -0.040874,-0.682992 -0.205848,-0.938544c-0.164481,-0.255547 -0.39052,-0.454038 -0.678116,-0.595467c-0.285134,-0.141227 -0.595383,-0.224074 -0.929763,-0.248534c-0.45454,-0.033211 -0.85944,0.037097 -1.214355,0.21092c-0.351961,0.171297 -0.634337,0.401039 -0.847178,0.689221l0.524124,0.518515c0.15414,-0.235006 0.35398,-0.421525 0.59952,-0.559557c0.245491,-0.138031 0.534072,-0.194915 0.866482,-0.170652c0.351123,0.025652 0.62887,0.132166 0.834226,0.319537c0.207818,0.187573 0.3004,0.433768 0.277747,0.738595c-0.021668,0.296662 -0.14626,0.521519 -0.373777,0.674526c-0.227516,0.150299 -0.523977,0.220326 -0.889874,0.209985c-0.051708,-0.001034 -0.123115,-0.003496 -0.212742,-0.007338c-0.087165,-0.006353 -0.170292,-0.01241 -0.249184,-0.018172c-0.076233,-0.005565 -0.126562,-0.009258 -0.151086,-0.01108l-0.051216,0.694023c0.024524,0.001822 0.050379,0.003693 0.077562,0.005663c0.027233,0.002019 0.08293,0.007436 0.167091,0.01635c0.086673,0.009061 0.226531,0.024771 0.419083,0.04703c0.247215,0.026297 0.470791,0.075445 0.670729,0.147492c0.199938,0.069388 0.35654,0.176547 0.468821,0.321576c0.115235,0.142518 0.163989,0.33763 0.145768,0.585288c-0.024131,0.326599 -0.162512,0.586026 -0.414651,0.778283c-0.252139,0.192256 -0.611142,0.271394 -1.076516,0.237415c-0.457248,-0.033438 -0.809406,-0.156307 -1.056473,-0.368606c-0.247018,-0.212348 -0.409972,-0.451388 -0.488864,-0.71707l-0.67462,0.352946c0.084457,0.227812 0.21614,0.44538 0.395149,0.652755c0.181914,0.204814 0.416768,0.377962 0.704611,0.519397c0.290797,0.138874 0.637587,0.223035 1.040419,0.252484z"/>
   <path id="svg_39" fill="#FBE2B6" d="m50.20871,7.430034l0.741644,0.153155l0.732287,-1.257396l2.465743,0.509154l0.177778,1.445368l0.741644,0.153155l-0.739181,-6.17175l-0.994275,-0.205326l-3.125639,5.373641zm1.836873,-1.72735l1.623146,-2.795637l0.393475,3.21206l-2.016621,-0.416424z"/>
   <path id="svg_40" fill="#FBE2B6" d="m56.758418,9.022253l0.690428,0.232638l1.662542,-4.930108l1.904832,0.641724l0.221114,-0.655512l-4.500092,-1.516139l-0.221114,0.655517l1.904832,0.641773l-1.662542,4.930108z"/>
   <path id="svg_41" fill="#FBE2B6" d="m59.475315,9.96551l2.099354,1.009689c0.051708,0.024869 0.112773,0.051413 0.18418,0.079581c0.073869,0.0294 0.147245,0.055746 0.221114,0.07904c0.462419,0.140646 0.87707,0.11297 1.243952,-0.082979c0.370329,-0.197279 0.657433,-0.507331 0.861311,-0.930255c0.203386,-0.422924 0.26642,-0.839446 0.188119,-1.249517c-0.076824,-0.412533 -0.313204,-0.75494 -0.709141,-1.027171c-0.063035,-0.045405 -0.129517,-0.086525 -0.199938,-0.123263c-0.068944,-0.039249 -0.128039,-0.070668 -0.177285,-0.094355l-1.442413,-0.693826l0.945029,-1.962155l-0.656448,-0.315863l-2.557833,5.311074zm0.956848,-0.307442l1.012496,-2.102308l1.420252,0.683189c0.046784,0.022456 0.098492,0.050379 0.155125,0.083669c0.059095,0.034521 0.112773,0.070914 0.161034,0.109227c0.228501,0.1796 0.350631,0.397415 0.366882,0.653444c0.017236,0.253617 -0.027578,0.491031 -0.133949,0.712342c-0.106864,0.221262 -0.264943,0.40554 -0.475223,0.552736c-0.209295,0.144734 -0.455032,0.183884 -0.738196,0.117402c-0.06008,-0.01374 -0.12213,-0.032946 -0.185657,-0.057568c-0.061557,-0.02349 -0.115728,-0.046488 -0.162512,-0.068944l-1.420252,-0.683189z"/>
   <path id="svg_42" fill="#FBE2B6" d="m65.595106,13.159354l0.584549,0.43494l3.10791,-4.173001l2.522376,1.876516l-3.10791,4.173001l0.585042,0.434891l3.520591,-4.727855l-3.691967,-2.746347l-3.520591,4.727855z"/>
   <path id="svg_43" fill="#FBE2B6" d="m69.912988,16.43997l0.521022,0.509449l1.523669,-1.55622l1.143983,1.119114c0.039397,0.038166 0.089135,0.08293 0.149215,0.134392c0.060572,0.051413 0.121637,0.099969 0.18418,0.145571c0.391013,0.279372 0.792859,0.38594 1.205048,0.319705c0.414158,-0.068206 0.785472,-0.270015 1.113943,-0.605429c0.32847,-0.335414 0.521022,-0.70988 0.57864,-1.123398c0.061065,-0.413567 -0.053678,-0.813641 -0.343244,-1.200172c-0.045306,-0.063183 -0.095045,-0.12341 -0.149708,-0.180733c-0.050723,-0.057322 -0.096522,-0.106026 -0.137889,-0.146063l-1.665005,-1.628563l-4.123854,4.212348zm2.528286,-1.541151l1.632502,-1.667368l1.126747,1.101927c0.036934,0.036245 0.077316,0.079237 0.12016,0.128926c0.044814,0.05161 0.084211,0.103269 0.117205,0.154977c0.159064,0.243324 0.205355,0.488815 0.138381,0.736473c-0.064512,0.245737 -0.183195,0.456362 -0.355063,0.631874c-0.171376,0.175512 -0.380671,0.299366 -0.626901,0.371511c-0.24426,0.070175 -0.489997,0.028464 -0.736719,-0.125134c-0.052693,-0.032207 -0.105386,-0.070225 -0.157587,-0.114004c-0.050723,-0.041908 -0.094552,-0.08096 -0.131979,-0.117255l-1.126747,-1.101927z"/>
   <path id="svg_44" fill="#FBE2B6" d="m74.754847,21.821613c0.36245,0.464931 0.771684,0.779267 1.227701,0.942862c0.45651,0.163644 0.931733,0.187775 1.426654,0.072342c0.494922,-0.115383 0.980979,-0.3592 1.459157,-0.731351c0.478178,-0.372201 0.833733,-0.783897 1.066667,-1.235088c0.232933,-0.45124 0.326008,-0.917895 0.279224,-1.400062c-0.047276,-0.482167 -0.251647,-0.955716 -0.614097,-1.420696c-0.36048,-0.462813 -0.770206,-0.777101 -1.227701,-0.942912c-0.45651,-0.163595 -0.931733,-0.187725 -1.426654,-0.072293c-0.494922,0.115383 -0.980979,0.3592 -1.459157,0.731351c-0.478178,0.372151 -0.833733,0.783847 -1.066667,1.235088c-0.233426,0.45124 -0.326008,0.917895 -0.279224,1.400062c0.048753,0.484334 0.253617,0.957882 0.614097,1.420696zm0.549092,-0.427504c-0.267898,-0.348267 -0.413666,-0.699785 -0.437796,-1.054651c-0.022161,-0.352749 0.061065,-0.69619 0.250662,-1.030323c0.191567,-0.335857 0.473253,-0.646894 0.845552,-0.933112c0.374269,-0.287842 0.746568,-0.484531 1.117882,-0.590065c0.372299,-0.103367 0.727362,-0.101102 1.063712,0.006845c0.336842,0.107947 0.639212,0.336054 0.90711,0.684321c0.267898,0.348218 0.413173,0.698701 0.435334,1.05145c0.023638,0.354817 -0.059588,0.698307 -0.250662,1.030323c-0.189597,0.334183 -0.470299,0.646254 -0.84309,0.936263c-0.370329,0.288384 -0.742629,0.485072 -1.117882,0.590114c-0.370822,0.105534 -0.725392,0.103219 -1.063712,-0.006845c-0.336842,-0.107996 -0.639212,-0.336054 -0.90711,-0.684321z"/>
   <path id="svg_45" fill="#FBE2B6" d="m76.65968,24.187043l1.895476,3.206894l0.595383,-0.351714l-1.524654,-2.579649l1.699477,-1.003189l1.274484,2.156725l0.595876,-0.351714l-1.274977,-2.156725l1.589658,-0.938677l1.524654,2.5796l0.595876,-0.351714l-1.895476,-3.206894l-5.075777,2.997058z"/>
   <path id="svg_46" fill="#FBE2B6" d="m78.849646,27.936086l0.291536,0.667824l2.641551,-1.151813l-1.536473,3.684284l0.376731,0.862887l1.6261,-3.857335l3.693937,1.31004l-0.366882,-0.840382l-3.56836,-1.257642l2.536657,-1.106014l-0.291536,-0.667824l-5.403263,2.355974z"/>
   <path id="svg_47" fill="#FBE2B6" d="m81.212465,33.985898l0.20634,0.698701l4.990089,-1.47398l0.569775,1.927436l0.663343,-0.19595l-1.346384,-4.553672l-0.663343,0.195999l0.569775,1.927436l-4.989597,1.474029z"/>
   <path id="svg_48" fill="#FBE2B6" d="m84.175592,40.824285c0.018221,0.181914 0.079778,0.343047 0.184672,0.483398c0.104894,0.143059 0.237858,0.251745 0.398892,0.326057c0.163989,0.076774 0.342259,0.105436 0.535303,0.086082c0.195506,-0.019698 0.36442,-0.083324 0.507233,-0.190926c0.145768,-0.10514 0.254601,-0.238153 0.326008,-0.398941c0.074854,-0.158326 0.102924,-0.32847 0.084703,-0.510385c-0.019698,-0.192798 -0.082241,-0.363435 -0.187627,-0.511911c-0.102432,-0.148772 -0.235888,-0.261545 -0.399877,-0.33827c-0.161527,-0.07707 -0.339797,-0.105731 -0.535303,-0.086082c-0.193044,0.019403 -0.361958,0.083029 -0.507725,0.190877c-0.142813,0.107602 -0.250662,0.244654 -0.324531,0.411154c-0.073869,0.1665 -0.100954,0.34615 -0.081748,0.538947z"/>
  </g>
 </g>
</svg>