<svg width="21" height="17" viewBox="0 0 21 17" fill="none" xmlns="http://www.w3.org/2000/svg">
<path d="M20.916 8.49981C20.916 8.77607 20.8063 9.04103 20.6109 9.23638C20.4156 9.43173 20.1506 9.54147 19.8743 9.54147L3.63476 9.54147L9.1556 15.0519C9.35175 15.248 9.46194 15.5141 9.46194 15.7915C9.46194 16.0689 9.35175 16.3349 9.1556 16.5311C8.95945 16.7272 8.69341 16.8374 8.41601 16.8374C8.13862 16.8374 7.87258 16.7272 7.67643 16.5311L0.384762 9.23939C0.287129 9.14255 0.209633 9.02734 0.15675 8.90041C0.103865 8.77347 0.0766395 8.63732 0.0766395 8.49981C0.0766395 8.36229 0.103865 8.22614 0.15675 8.09921C0.209633 7.97227 0.287129 7.85706 0.384762 7.76022L7.67643 0.468559C7.77355 0.371435 7.88886 0.294391 8.01575 0.241828C8.14265 0.189266 8.27866 0.162212 8.41601 0.162212C8.55337 0.162212 8.68938 0.189266 8.81627 0.241828C8.94317 0.294391 9.05847 0.371435 9.1556 0.468559C9.25272 0.565681 9.32976 0.680984 9.38233 0.807882C9.43489 0.93478 9.46194 1.07079 9.46194 1.20814C9.46194 1.34549 9.43489 1.4815 9.38233 1.6084C9.32976 1.7353 9.25272 1.8506 9.1556 1.94772L3.63476 7.45814L19.8743 7.45814C20.1506 7.45814 20.4156 7.56789 20.6109 7.76324C20.8063 7.95859 20.916 8.22354 20.916 8.49981Z" fill="white"/>
</svg>
