<svg width="21" height="17" viewBox="0 0 21 17" fill="none" xmlns="http://www.w3.org/2000/svg">
<path d="M0.083984 8.49981C0.083984 8.77607 0.193731 9.04103 0.389081 9.23638C0.584432 9.43173 0.849384 9.54147 1.12565 9.54147L17.3652 9.54147L11.8444 15.0519C11.6483 15.248 11.5381 15.5141 11.5381 15.7915C11.5381 16.0689 11.6483 16.3349 11.8444 16.5311C12.0406 16.7272 12.3066 16.8374 12.584 16.8374C12.8614 16.8374 13.1274 16.7272 13.3236 16.5311L20.6152 9.23939C20.7129 9.14255 20.7904 9.02734 20.8432 8.90041C20.8961 8.77347 20.9234 8.63732 20.9234 8.49981C20.9234 8.36229 20.8961 8.22614 20.8432 8.09921C20.7904 7.97227 20.7129 7.85706 20.6152 7.76022L13.3236 0.468559C13.2264 0.371435 13.1111 0.294391 12.9842 0.241828C12.8573 0.189266 12.7213 0.162212 12.584 0.162212C12.4466 0.162212 12.3106 0.189266 12.1837 0.241828C12.0568 0.294391 11.9415 0.371435 11.8444 0.468559C11.7473 0.565681 11.6702 0.680984 11.6177 0.807882C11.5651 0.93478 11.5381 1.07079 11.5381 1.20814C11.5381 1.34549 11.5651 1.4815 11.6177 1.6084C11.6702 1.7353 11.7473 1.8506 11.8444 1.94772L17.3652 7.45814L1.12565 7.45814C0.849384 7.45814 0.584431 7.56789 0.389081 7.76324C0.193731 7.95859 0.083984 8.22354 0.083984 8.49981Z" fill="white"/>
</svg>
