<svg width="36" height="44" viewBox="0 0 36 44" fill="none" xmlns="http://www.w3.org/2000/svg">
<path d="M18.0004 0.333252C17.4258 0.333252 16.8747 0.561525 16.4683 0.967854C16.062 1.37418 15.8337 1.92528 15.8337 2.49992V36.2783L4.37207 24.7949C3.96408 24.3869 3.41072 24.1577 2.83374 24.1577C2.25675 24.1577 1.70339 24.3869 1.2954 24.7949C0.88741 25.2029 0.658203 25.7563 0.658203 26.3333C0.658203 26.9102 0.88741 27.4636 1.2954 27.8716L16.4621 43.0382C16.6635 43.2413 16.9031 43.4025 17.1672 43.5125C17.4312 43.6225 17.7144 43.6791 18.0004 43.6791C18.2864 43.6791 18.5696 43.6225 18.8337 43.5125C19.0977 43.4025 19.3373 43.2413 19.5387 43.0382L34.7054 27.8716C34.9074 27.6696 35.0677 27.4297 35.177 27.1658C35.2863 26.9018 35.3426 26.6189 35.3426 26.3333C35.3426 26.0476 35.2863 25.7647 35.177 25.5007C35.0677 25.2368 34.9074 24.9969 34.7054 24.7949C34.5034 24.5929 34.2636 24.4327 33.9996 24.3233C33.7357 24.214 33.4528 24.1577 33.1671 24.1577C32.8814 24.1577 32.5985 24.214 32.3345 24.3233C32.0706 24.4327 31.8308 24.5929 31.6287 24.7949L20.1671 36.2783V2.49992C20.1671 1.92528 19.9388 1.37418 19.5325 0.967854C19.1261 0.561525 18.575 0.333252 18.0004 0.333252Z" fill="white"/>
</svg>
