<svg width="25" height="27" viewBox="0 0 25 27" fill="none" xmlns="http://www.w3.org/2000/svg">
<path d="M6.6445 27C6.56055 27 6.47445 26.9984 6.38884 26.9953C4.8231 26.9333 3.30322 26.2746 2.21907 25.191C-0.0572028 22.9143 -0.0573972 19.2122 2.21848 16.9353L13.5411 5.61436C14.9853 4.17018 17.3357 4.16998 18.7808 5.61406C20.2255 7.06116 20.2255 9.41313 18.7808 10.8573L10.9821 18.6551L9.06974 16.7427L16.8686 8.94446C17.26 8.55393 17.2598 7.919 16.8682 7.52642C16.4789 7.13754 15.843 7.13744 15.453 7.52701L4.13113 18.8478C2.90938 20.0696 2.90967 22.0565 4.13172 23.2783C4.7405 23.8885 5.60349 24.2569 6.49699 24.2922C7.38778 24.3281 8.18722 24.0355 8.75402 23.4707L20.0992 12.1252C21.127 11.0957 21.7408 9.65305 21.7801 8.16601C21.82 6.66207 21.2908 5.28203 20.2906 4.28095C18.1872 2.18008 14.3573 2.18008 12.2557 4.28095L4.44208 12.0953L2.52924 10.1824L10.344 2.36821C13.5017 -0.789321 19.0431 -0.789418 22.2023 2.36801C23.7335 3.89955 24.544 5.98419 24.483 8.23986C24.4246 10.4104 23.5237 12.5236 22.0119 14.0371L10.6668 25.3827C9.6175 26.4298 8.19752 27 6.6445 27Z" fill="white"/>
</svg>
