<?xml version="1.0" standalone="no"?>
<!DOCTYPE svg PUBLIC "-//W3C//DTD SVG 20010904//EN"
 "http://www.w3.org/TR/2001/REC-SVG-20010904/DTD/svg10.dtd">
<svg version="1.0" xmlns="http://www.w3.org/2000/svg"
 width="273.000000pt" height="213.000000pt" viewBox="0 0 273.000000 213.000000"
 preserveAspectRatio="xMidYMid meet">
<metadata>
Created by potrace 1.16, written by Peter Selinger 2001-2019
</metadata>
<g transform="translate(0.000000,213.000000) scale(0.100000,-0.100000)"
fill="#000000" stroke="none">
<path d="M759 1971 c-40 -40 -41 -96 -1 -134 l27 -26 570 -3 c534 -3 572 -4
605 -22 64 -34 95 -63 125 -117 l30 -54 3 -422 c2 -284 0 -423 -7 -423 -6 0
-48 38 -95 84 -47 46 -96 86 -110 90 -15 4 -41 0 -61 -8 -42 -18 -69 -71 -59
-113 5 -17 80 -99 196 -215 251 -251 209 -251 465 5 170 169 193 196 193 224
0 47 -19 80 -56 98 -50 24 -79 10 -175 -82 -47 -45 -89 -83 -93 -83 -3 0 -6
193 -6 430 0 413 -1 432 -21 492 -47 136 -151 240 -287 287 -61 20 -76 21
-638 21 l-576 0 -29 -29z"/>
<path d="M293 1507 c-186 -186 -193 -194 -193 -233 0 -47 19 -77 59 -94 48
-19 76 -5 170 85 49 47 91 85 95 85 3 0 6 -193 6 -430 0 -413 1 -432 21 -492
46 -133 153 -241 287 -287 61 -21 76 -21 638 -21 l576 0 29 29 c40 40 41 96 2
134 l-28 26 -570 3 c-534 3 -572 4 -605 22 -64 34 -95 63 -125 117 l-30 54 -3
423 c-2 283 0 422 7 422 6 0 48 -38 95 -84 53 -52 96 -86 113 -89 64 -12 132
58 117 120 -5 17 -77 97 -196 215 -251 251 -209 251 -465 -5z"/>
</g>
</svg>
