<svg width="56" height="53" viewBox="0 0 56 53" fill="none" xmlns="http://www.w3.org/2000/svg">
<path d="M23.8498 5.67698L31.7829 1.01709L32.5964 5.33389C32.6497 5.61657 32.9289 5.80994 33.2308 5.77336L42.4903 4.6517L41.377 8.81171C41.3025 9.08962 41.4726 9.37384 41.7633 9.45777L50.7042 12.0367L47.9008 15.3555C47.7095 15.5821 47.7427 15.9108 47.9758 16.0992L55 21.7792L51.0219 23.8439C50.7591 23.9802 50.6532 24.285 50.7795 24.5416L54.7027 32.5139L50.2364 32.791C49.9321 32.81 49.6974 33.0513 49.7036 33.3387L49.8904 42.1061L45.6456 40.6613C45.3604 40.5643 45.0445 40.6945 44.9265 40.9578L41.3325 48.9739L38.0558 46.0862C37.8364 45.8929 37.4957 45.893 37.2765 46.0864L30.5242 52.0461L28.7881 48.1385C28.6716 47.8764 28.3591 47.7448 28.0745 47.8381L19.2846 50.7195L19.4347 46.4621C19.4448 46.1765 19.2164 45.9333 18.9146 45.9082L9.58968 45.1346L11.6095 41.3439C11.7478 41.0845 11.6428 40.7684 11.3722 40.6296L3.10354 36.3894L6.66763 33.6635C6.91523 33.4742 6.95027 33.1303 6.74555 32.9L1 26.4361L5.54116 24.7347C5.79756 24.6386 5.94442 24.3831 5.88965 24.1279L3.92619 14.9817L8.15987 16.121C8.48407 16.2084 8.8174 16.0128 8.87771 15.6999L10.5642 6.94913L14.4486 9.34049C14.7084 9.50035 15.056 9.43533 15.2312 9.194L20.5545 1.86452L23.0699 5.51358C23.2394 5.75922 23.5861 5.83193 23.8498 5.67698Z" stroke="white"/>
<path d="M8.91101 15.56C8.66651 32.2382 33.0346 29.5481 30.5896 14.7146" stroke="white" stroke-linecap="round"/>
<path d="M30.8684 14.3359C30.6466 14.1906 30.3419 14.2423 30.1877 14.4515C30.0337 14.6605 30.0885 14.948 30.3103 15.0932L30.8684 14.3359ZM30.3103 15.0932C34.8767 18.0858 35.5495 23.5633 33.3295 27.7925C32.2237 29.899 30.4096 31.6684 28.0339 32.6397C25.6637 33.6087 22.6987 33.7983 19.2562 32.6891L18.9399 33.5617C22.5878 34.7373 25.8064 34.5558 28.4229 33.4859C31.034 32.4184 33.0095 30.4811 34.2061 28.2016C36.5907 23.6584 35.9189 17.6457 30.8684 14.3359L30.3103 15.0932Z" fill="white"/>
<path d="M19.3428 33.3949C22.3582 32.8566 23.7437 29.0883 21.3802 26.7043" stroke="white"/>
<path d="M25.2922 29.2423C26.1024 29.2423 26.7591 28.6226 26.7591 27.8581C26.7591 27.0936 26.1024 26.4739 25.2922 26.4739C24.482 26.4739 23.8252 27.0936 23.8252 27.8581C23.8252 28.6226 24.482 29.2423 25.2922 29.2423Z" fill="white"/>
<path d="M18.7721 34.3146C19.4022 34.3146 19.9131 33.8326 19.9131 33.238C19.9131 32.6434 19.4022 32.1614 18.7721 32.1614C18.1419 32.1614 17.6311 32.6434 17.6311 33.238C17.6311 33.8326 18.1419 34.3146 18.7721 34.3146Z" fill="white"/>
</svg>
