<svg width="326" height="317" viewBox="0 0 326 317" fill="none" xmlns="http://www.w3.org/2000/svg">
<rect width="326" height="317" rx="158.5" fill="white"/>
<path fill-rule="evenodd" clip-rule="evenodd" d="M167.862 38.7771C166.819 38.3599 165.655 38.3599 164.612 38.7771L120.862 56.2771C119.201 56.9416 118.112 58.5503 118.112 60.3392C118.112 62.1282 119.201 63.7369 120.862 64.4014L139.987 72.0511V89.4592C139.987 95.3204 145.637 99.5244 151.252 97.84L166.237 93.3442L181.223 97.84C186.837 99.5244 192.487 95.3204 192.487 89.4592V72.0511L211.612 64.4014C213.273 63.7369 214.362 62.1282 214.362 60.3392C214.362 58.5503 213.273 56.9416 211.612 56.2771L167.862 38.7771Z" fill="#3B1C05"/>
<path fill-rule="evenodd" clip-rule="evenodd" d="M196.862 90.9642V64.7142H205.612V90.9642H196.862Z" fill="#3B1C05"/>
<g clip-path="url(#clip0_34_2)">
<path d="M163.587 86.0742L159.652 84.9227C159.24 84.8056 159.007 84.3697 159.124 83.9533L167.927 53.3624C168.043 52.946 168.475 52.7118 168.888 52.8289L172.822 53.9805C173.235 54.0976 173.467 54.5335 173.351 54.9499L164.547 85.5407C164.425 85.9571 163.999 86.1978 163.587 86.0742ZM156.234 78.7746L159.04 75.7558C159.336 75.437 159.317 74.9296 158.988 74.6368L153.145 69.4516L158.988 64.2664C159.317 63.9736 159.343 63.4661 159.04 63.1473L156.234 60.1286C155.944 59.8163 155.454 59.7968 155.138 60.0961L145.844 68.8791C145.515 69.1848 145.515 69.7118 145.844 70.0176L155.138 78.8071C155.454 79.1064 155.944 79.0934 156.234 78.7746ZM177.337 78.8136L186.63 70.0241C186.959 69.7183 186.959 69.1913 186.63 68.8856L177.337 60.0896C177.027 59.7968 176.537 59.8098 176.24 60.1221L173.435 63.1408C173.138 63.4596 173.157 63.9671 173.486 64.2599L179.329 69.4516L173.486 74.6368C173.157 74.9296 173.132 75.437 173.435 75.7558L176.24 78.7746C176.53 79.0934 177.021 79.1064 177.337 78.8136Z" fill="white"/>
</g>
<path d="M71.6482 91.0734C70.2598 91.6685 69.9038 92.8586 69.9038 96.6602C69.9038 98.6106 70.0818 100.396 70.2598 100.561C70.4734 100.759 73.8911 101.421 77.914 102.049C93.1155 104.429 106.501 106.842 117.253 109.057C122.415 110.148 138.542 113.883 142.245 114.875C143.953 115.338 144.95 114.875 144.772 113.685C144.665 112.925 143.704 112.429 136.655 109.454C120.493 102.644 102.728 96.9577 85.3901 93.0238C74.7099 90.6106 73.1435 90.3792 71.6482 91.0734Z" fill="#3B1C05"/>
<path d="M248.442 91.3379C241.606 92.7594 239.043 93.3544 232.065 95.1395C216.009 99.2387 197.461 105.652 184.182 111.702C181.192 113.09 180.515 113.916 181.69 114.809C182.153 115.173 182.58 115.173 183.755 114.875C184.574 114.644 188.953 113.586 193.438 112.528C209.423 108.693 226.191 105.487 248.086 102.049C252.109 101.421 255.526 100.759 255.74 100.561C256.274 100.065 256.203 93.2552 255.597 92.2635C254.636 90.5445 253.177 90.3792 248.442 91.3379Z" fill="#3B1C05"/>
<path d="M61.7157 109.85C58.7608 110.478 56.8028 112.297 56.1976 115.007C55.9484 116.098 55.8416 134.478 55.9128 173.321L56.0196 230.016L56.9808 231.569C58.3336 233.652 59.8645 234.478 63.6025 235.007C91.5848 238.974 116.114 243.503 135.979 248.363C141.461 249.718 142.173 249.917 149.899 252.164C154.491 253.52 155.381 253.52 156.805 252.098L157.66 251.239V190.941C157.66 150.082 157.553 130.412 157.304 129.983C156.734 129.024 154.812 128.264 147.87 126.28C130.746 121.421 111.023 117.222 87.1703 113.354C83.1474 112.693 78.5905 111.933 77.024 111.669C75.4576 111.437 72.8943 111.04 71.3279 110.842C69.7615 110.644 67.6966 110.346 66.6998 110.181C63.4245 109.652 62.7837 109.619 61.7157 109.85Z" fill="#3B1C05"/>
<path d="M261.436 109.85C260.653 109.983 258.161 110.346 255.918 110.644C253.675 110.941 250.542 111.404 248.976 111.669C247.409 111.933 242.853 112.693 238.83 113.354C216.472 116.958 194.257 121.685 178.878 126.082C171.687 128.131 169.515 128.925 168.874 129.817C168.411 130.412 168.34 138.379 168.34 190.941V251.371L169.195 252.164C170.69 253.553 171.473 253.52 177.703 251.735C186.746 249.123 198.992 246.115 206.611 244.594C207.999 244.33 211.666 243.569 214.799 242.941C225.017 240.892 243.885 237.718 257.805 235.669C266.527 234.379 267.417 234.049 269.019 231.569L269.98 230.016L270.087 173.321C270.158 134.478 270.052 116.098 269.802 115.007C268.948 111.371 265.459 109.222 261.436 109.85Z" fill="#3B1C05"/>
<path d="M214.977 252.859C206.504 254.644 197.212 256.726 196.358 257.024C195.824 257.222 195.041 257.751 194.685 258.214C194.008 258.974 193.973 259.569 193.973 266.512C193.973 273.321 194.044 274.082 194.685 275.041C195.183 275.801 195.717 276.164 196.643 276.33C198.245 276.594 198.779 276.363 203.834 273.288C206.041 271.933 208.035 270.842 208.213 270.842C208.427 270.842 210.527 272.032 212.841 273.487C217.469 276.363 218.644 276.76 220.353 276.131C222.311 275.371 222.453 274.545 222.453 264.396C222.453 254.71 222.275 253.454 220.744 252.693C219.783 252.231 217.825 252.264 214.977 252.859Z" fill="#3B1C05"/>
<defs>
<clipPath id="clip0_34_2">
<rect width="41.2759" height="33.3103" fill="white" transform="translate(145.599 52.7961)"/>
</clipPath>
</defs>
</svg>
