<svg width="18" height="18" viewBox="0 0 18 18" fill="none" xmlns="http://www.w3.org/2000/svg">
<g clip-path="url(#clip0_128_2017)">
<path d="M9.35668 1.24768L10.1208 2.31045C10.473 2.80031 11.113 2.98824 11.6741 2.76655L12.8915 2.28559C13.1706 2.17532 13.4756 2.37133 13.4912 2.67103L13.5595 3.97818C13.5909 4.58068 14.0277 5.08477 14.6196 5.20168L15.9038 5.45522C16.1982 5.51335 16.3488 5.84314 16.1999 6.1037L15.5506 7.24025C15.2513 7.76409 15.3462 8.42434 15.781 8.84265L16.7242 9.75024C16.9404 9.95829 16.8888 10.3172 16.6228 10.4559L15.4621 11.0609C14.927 11.3399 14.65 11.9466 14.7895 12.5336L15.0924 13.807C15.1618 14.099 14.9243 14.3729 14.6255 14.3458L13.3219 14.2273C12.7211 14.1727 12.1599 14.5333 11.96 15.1025L11.5263 16.3375C11.4269 16.6207 11.079 16.7228 10.8423 16.5383L9.80967 15.7339C9.33377 15.3631 8.66671 15.3631 8.19081 15.7339L7.15822 16.5383C6.9215 16.7228 6.57362 16.6207 6.47418 16.3375L6.04047 15.1025C5.84054 14.5333 5.27942 14.1727 4.67857 14.2273L3.375 14.3458C3.07614 14.3729 2.83871 14.099 2.90814 13.807L3.21095 12.5336C3.35053 11.9466 3.07343 11.3399 2.53844 11.0609L1.37774 10.4559C1.11163 10.3172 1.06004 9.95829 1.27628 9.75024L2.21949 8.84265C2.65425 8.42434 2.74917 7.76409 2.44989 7.24025L1.80057 6.1037C1.65171 5.84314 1.80232 5.51335 2.09673 5.45522L3.38088 5.20168C3.97278 5.08477 4.40958 4.58068 4.44101 3.97818L4.50924 2.67103C4.52487 2.37133 4.8299 2.17532 5.10899 2.28559L6.32636 2.76655C6.88748 2.98824 7.52749 2.80031 7.87967 2.31045L8.6438 1.24768C8.81897 1.00403 9.18151 1.00403 9.35668 1.24768Z" stroke="#E7E4E2" stroke-width="0.878049"/>
<path d="M11.7072 7.02441L7.6828 11.0488L5.85352 9.21954" stroke="#E7E4E2" stroke-width="1.09756" stroke-linecap="round" stroke-linejoin="round"/>
</g>
<defs>
<clipPath id="clip0_128_2017">
<rect width="18" height="18" fill="white"/>
</clipPath>
</defs>
</svg>
