<svg width="164" height="23" viewBox="0 0 164 23" fill="none" xmlns="http://www.w3.org/2000/svg">
<path d="M0.528409 0.545454H4.09943L8.36932 8.26705H8.53977L12.8097 0.545454H16.3807L10.0312 11.4886V18H6.87784V11.4886L0.528409 0.545454ZM17.5803 18H14.2053L20.3501 0.545454H24.2536L30.407 18H27.032L22.37 4.125H22.2337L17.5803 18ZM17.6911 11.1562H26.8956V13.696H17.6911V11.1562ZM40.4105 5.34375C40.331 4.59943 39.9957 4.01989 39.4048 3.60511C38.8196 3.19034 38.0582 2.98295 37.1207 2.98295C36.4616 2.98295 35.8963 3.08239 35.4247 3.28125C34.9531 3.48011 34.5923 3.75 34.3423 4.09091C34.0923 4.43182 33.9645 4.82102 33.9588 5.25852C33.9588 5.62216 34.0412 5.9375 34.206 6.20455C34.3764 6.47159 34.6065 6.69886 34.8963 6.88636C35.1861 7.06818 35.5071 7.22159 35.8594 7.34659C36.2116 7.47159 36.5668 7.5767 36.9247 7.66193L38.5611 8.07102C39.2202 8.22443 39.8537 8.43182 40.4616 8.69318C41.0753 8.95455 41.6236 9.28409 42.1065 9.68182C42.5952 10.0795 42.9815 10.5597 43.2656 11.1222C43.5497 11.6847 43.6918 12.3437 43.6918 13.0994C43.6918 14.1222 43.4304 15.0227 42.9077 15.8011C42.3849 16.5739 41.6293 17.179 40.6406 17.6165C39.6577 18.0483 38.4673 18.2642 37.0696 18.2642C35.7116 18.2642 34.5327 18.054 33.5327 17.6335C32.5384 17.2131 31.7599 16.5994 31.1974 15.7926C30.6406 14.9858 30.3395 14.0028 30.294 12.8438H33.4048C33.4503 13.4517 33.6378 13.9574 33.9673 14.3608C34.2969 14.7642 34.7259 15.0653 35.2543 15.2642C35.7884 15.4631 36.3849 15.5625 37.044 15.5625C37.7315 15.5625 38.3338 15.4602 38.8509 15.2557C39.3736 15.0455 39.7827 14.7557 40.0781 14.3864C40.3736 14.0114 40.5241 13.5739 40.5298 13.0739C40.5241 12.6193 40.3906 12.2443 40.1293 11.9489C39.8679 11.6477 39.5014 11.3977 39.0298 11.1989C38.5639 10.9943 38.0185 10.8125 37.3935 10.6534L35.4077 10.142C33.9702 9.77273 32.8338 9.21307 31.9986 8.46307C31.169 7.70739 30.7543 6.70455 30.7543 5.45454C30.7543 4.42614 31.0327 3.52557 31.5895 2.75284C32.152 1.98011 32.9162 1.38068 33.8821 0.954545C34.848 0.522727 35.9418 0.306818 37.1634 0.306818C38.402 0.306818 39.4872 0.522727 40.419 0.954545C41.3565 1.38068 42.0923 1.97443 42.6264 2.73579C43.1605 3.49148 43.4361 4.3608 43.4531 5.34375H40.4105ZM48.1726 0.545454V18H45.0107V0.545454H48.1726ZM50.0966 18V0.545454H56.642C57.983 0.545454 59.108 0.778409 60.017 1.24432C60.9318 1.71023 61.6222 2.36364 62.0881 3.20454C62.5597 4.03977 62.7955 5.0142 62.7955 6.12784C62.7955 7.24716 62.5568 8.21875 62.0795 9.04261C61.608 9.8608 60.9119 10.4943 59.9915 10.9432C59.071 11.3864 57.9403 11.608 56.5994 11.608H51.9375V8.98295H56.1733C56.9574 8.98295 57.5994 8.875 58.0994 8.65909C58.5994 8.4375 58.9688 8.11648 59.2074 7.69602C59.4517 7.26989 59.5739 6.74716 59.5739 6.12784C59.5739 5.50852 59.4517 4.98011 59.2074 4.54261C58.9631 4.09943 58.5909 3.7642 58.0909 3.53693C57.5909 3.30398 56.946 3.1875 56.1562 3.1875H53.2585V18H50.0966ZM59.1136 10.0909L63.4347 18H59.9062L55.6619 10.0909H59.1136Z" fill="url(#paint0_linear_51_273)"/>
<path d="M72.2898 18.2642C71.4602 18.2642 70.7131 18.1165 70.0483 17.821C69.3892 17.5199 68.8665 17.0767 68.4801 16.4915C68.0994 15.9062 67.9091 15.1847 67.9091 14.3267C67.9091 13.5881 68.0455 12.9773 68.3182 12.4943C68.5909 12.0114 68.9631 11.625 69.4347 11.3352C69.9063 11.0455 70.4375 10.8267 71.0284 10.679C71.625 10.5256 72.2415 10.4148 72.8778 10.3466C73.6449 10.267 74.267 10.196 74.7443 10.1335C75.2216 10.0653 75.5682 9.96307 75.7841 9.8267C76.0057 9.68466 76.1165 9.46591 76.1165 9.17045V9.11932C76.1165 8.47727 75.9261 7.98011 75.5455 7.62784C75.1648 7.27557 74.6165 7.09943 73.9006 7.09943C73.1449 7.09943 72.5455 7.2642 72.1023 7.59375C71.6648 7.9233 71.3693 8.3125 71.2159 8.76136L68.3352 8.35227C68.5625 7.55682 68.9375 6.89205 69.4602 6.35795C69.983 5.81818 70.6222 5.41477 71.3778 5.14773C72.1335 4.875 72.9688 4.73864 73.8835 4.73864C74.5142 4.73864 75.142 4.8125 75.767 4.96023C76.392 5.10795 76.9631 5.35227 77.4801 5.69318C77.9972 6.02841 78.4119 6.4858 78.7244 7.06534C79.0426 7.64489 79.2017 8.36932 79.2017 9.23864V18H76.2358V16.2017H76.1335C75.946 16.5653 75.6818 16.9062 75.3409 17.2244C75.0057 17.5369 74.5824 17.7898 74.071 17.983C73.5653 18.1705 72.9716 18.2642 72.2898 18.2642ZM73.0909 15.9972C73.7102 15.9972 74.2472 15.875 74.7017 15.6307C75.1563 15.3807 75.5057 15.0511 75.75 14.642C76 14.233 76.125 13.7869 76.125 13.304V11.7614C76.0284 11.8409 75.8636 11.9148 75.6307 11.983C75.4034 12.0511 75.1477 12.1108 74.8636 12.1619C74.5795 12.2131 74.2983 12.2585 74.0199 12.2983C73.7415 12.3381 73.5 12.3722 73.2955 12.4006C72.8352 12.4631 72.4233 12.5653 72.0597 12.7074C71.696 12.8494 71.4091 13.0483 71.1989 13.304C70.9886 13.554 70.8835 13.8778 70.8835 14.2756C70.8835 14.8438 71.0909 15.2727 71.5057 15.5625C71.9205 15.8523 72.4489 15.9972 73.0909 15.9972ZM86.5142 18.2557C85.2074 18.2557 84.0852 17.9688 83.1477 17.3949C82.2159 16.821 81.4972 16.0284 80.9915 15.017C80.4915 14 80.2415 12.8295 80.2415 11.5057C80.2415 10.1761 80.4972 9.00284 81.0085 7.9858C81.5199 6.96307 82.2415 6.16761 83.1733 5.59943C84.1108 5.02557 85.2188 4.73864 86.4972 4.73864C87.5597 4.73864 88.5 4.93466 89.3182 5.3267C90.142 5.71307 90.7983 6.26136 91.2869 6.97159C91.7756 7.67614 92.054 8.5 92.1222 9.44318H89.1733C89.054 8.8125 88.7699 8.28693 88.321 7.86648C87.8778 7.44034 87.2841 7.22727 86.5398 7.22727C85.9091 7.22727 85.3551 7.39773 84.8778 7.73864C84.4006 8.07386 84.0284 8.55682 83.7614 9.1875C83.5 9.81818 83.3693 10.5739 83.3693 11.4545C83.3693 12.3466 83.5 13.1136 83.7614 13.7557C84.0227 14.392 84.3892 14.8835 84.8608 15.2301C85.3381 15.571 85.8977 15.7415 86.5398 15.7415C86.9943 15.7415 87.4006 15.6562 87.7585 15.4858C88.1222 15.3097 88.4261 15.0568 88.6705 14.7273C88.9148 14.3977 89.0824 13.9972 89.1733 13.5256H92.1222C92.0483 14.4517 91.7756 15.2727 91.304 15.9886C90.8324 16.6989 90.1903 17.2557 89.3778 17.6591C88.5653 18.0568 87.6108 18.2557 86.5142 18.2557ZM96.9226 18.2642C96.093 18.2642 95.3459 18.1165 94.6811 17.821C94.022 17.5199 93.4993 17.0767 93.1129 16.4915C92.7322 15.9062 92.5419 15.1847 92.5419 14.3267C92.5419 13.5881 92.6783 12.9773 92.951 12.4943C93.2237 12.0114 93.5959 11.625 94.0675 11.3352C94.5391 11.0455 95.0703 10.8267 95.6612 10.679C96.2578 10.5256 96.8743 10.4148 97.5107 10.3466C98.2777 10.267 98.8999 10.196 99.3771 10.1335C99.8544 10.0653 100.201 9.96307 100.417 9.8267C100.638 9.68466 100.749 9.46591 100.749 9.17045V9.11932C100.749 8.47727 100.559 7.98011 100.178 7.62784C99.7976 7.27557 99.2493 7.09943 98.5334 7.09943C97.7777 7.09943 97.1783 7.2642 96.7351 7.59375C96.2976 7.9233 96.0021 8.3125 95.8487 8.76136L92.968 8.35227C93.1953 7.55682 93.5703 6.89205 94.093 6.35795C94.6158 5.81818 95.255 5.41477 96.0107 5.14773C96.7663 4.875 97.6016 4.73864 98.5163 4.73864C99.147 4.73864 99.7749 4.8125 100.4 4.96023C101.025 5.10795 101.596 5.35227 102.113 5.69318C102.63 6.02841 103.045 6.4858 103.357 7.06534C103.675 7.64489 103.835 8.36932 103.835 9.23864V18H100.869V16.2017H100.766C100.579 16.5653 100.315 16.9062 99.9737 17.2244C99.6385 17.5369 99.2152 17.7898 98.7038 17.983C98.1982 18.1705 97.6044 18.2642 96.9226 18.2642ZM97.7237 15.9972C98.343 15.9972 98.88 15.875 99.3345 15.6307C99.7891 15.3807 100.138 15.0511 100.383 14.642C100.633 14.233 100.758 13.7869 100.758 13.304V11.7614C100.661 11.8409 100.496 11.9148 100.263 11.983C100.036 12.0511 99.7805 12.1108 99.4964 12.1619C99.2124 12.2131 98.9311 12.2585 98.6527 12.2983C98.3743 12.3381 98.1328 12.3722 97.9283 12.4006C97.468 12.4631 97.0561 12.5653 96.6925 12.7074C96.3288 12.8494 96.0419 13.0483 95.8317 13.304C95.6214 13.554 95.5163 13.8778 95.5163 14.2756C95.5163 14.8438 95.7237 15.2727 96.1385 15.5625C96.5533 15.8523 97.0817 15.9972 97.7237 15.9972ZM110.295 18.2301C109.266 18.2301 108.346 17.9659 107.533 17.4375C106.721 16.9091 106.079 16.142 105.607 15.1364C105.136 14.1307 104.9 12.9091 104.9 11.4716C104.9 10.017 105.138 8.78977 105.616 7.78977C106.099 6.78409 106.749 6.02557 107.567 5.5142C108.386 4.99716 109.298 4.73864 110.303 4.73864C111.07 4.73864 111.701 4.86932 112.195 5.13068C112.69 5.38636 113.082 5.69602 113.371 6.05966C113.661 6.41761 113.886 6.75568 114.045 7.07386H114.173V0.545454H117.266V18H114.232V15.9375H114.045C113.886 16.2557 113.656 16.5937 113.354 16.9517C113.053 17.304 112.656 17.6051 112.161 17.8551C111.667 18.1051 111.045 18.2301 110.295 18.2301ZM111.156 15.6989C111.809 15.6989 112.366 15.5227 112.826 15.1705C113.286 14.8125 113.636 14.3153 113.874 13.679C114.113 13.0426 114.232 12.3011 114.232 11.4545C114.232 10.608 114.113 9.87216 113.874 9.24716C113.641 8.62216 113.295 8.13636 112.835 7.78977C112.38 7.44318 111.82 7.26989 111.156 7.26989C110.468 7.26989 109.894 7.44886 109.434 7.80682C108.974 8.16477 108.627 8.65909 108.394 9.28977C108.161 9.92045 108.045 10.642 108.045 11.4545C108.045 12.2727 108.161 13.0028 108.394 13.6449C108.633 14.2812 108.982 14.7841 109.442 15.1534C109.908 15.517 110.479 15.6989 111.156 15.6989ZM124.849 18.2557C123.537 18.2557 122.403 17.983 121.449 17.4375C120.5 16.8864 119.77 16.108 119.259 15.1023C118.747 14.0909 118.491 12.9006 118.491 11.5312C118.491 10.1847 118.747 9.00284 119.259 7.9858C119.776 6.96307 120.497 6.16761 121.423 5.59943C122.349 5.02557 123.438 4.73864 124.688 4.73864C125.494 4.73864 126.256 4.86932 126.972 5.13068C127.693 5.38636 128.33 5.78409 128.881 6.32386C129.438 6.86364 129.875 7.55114 130.193 8.38636C130.511 9.21591 130.67 10.2045 130.67 11.3523V12.2983H119.94V10.2188H127.713C127.707 9.62784 127.58 9.10227 127.33 8.64205C127.08 8.17614 126.73 7.80966 126.281 7.54261C125.838 7.27557 125.321 7.14205 124.73 7.14205C124.099 7.14205 123.545 7.29545 123.068 7.60227C122.591 7.90341 122.219 8.30114 121.952 8.79545C121.69 9.28409 121.557 9.82102 121.551 10.4062V12.2216C121.551 12.983 121.69 13.6364 121.969 14.1818C122.247 14.7216 122.636 15.1364 123.136 15.4261C123.636 15.7102 124.222 15.8523 124.892 15.8523C125.341 15.8523 125.747 15.7898 126.111 15.6648C126.474 15.5341 126.79 15.3438 127.057 15.0938C127.324 14.8438 127.526 14.5341 127.662 14.1648L130.543 14.4886C130.361 15.25 130.014 15.9148 129.503 16.483C128.997 17.0455 128.349 17.483 127.56 17.7955C126.77 18.1023 125.866 18.2557 124.849 18.2557ZM131.781 18V4.90909H134.729V7.13352H134.883C135.156 6.38352 135.607 5.7983 136.238 5.37784C136.869 4.9517 137.621 4.73864 138.496 4.73864C139.383 4.73864 140.13 4.95455 140.738 5.38636C141.352 5.8125 141.783 6.39489 142.033 7.13352H142.17C142.46 6.40625 142.948 5.8267 143.636 5.39489C144.329 4.95739 145.15 4.73864 146.099 4.73864C147.303 4.73864 148.286 5.11932 149.048 5.88068C149.809 6.64205 150.19 7.75284 150.19 9.21307V18H147.096V9.69034C147.096 8.87784 146.88 8.28409 146.448 7.90909C146.016 7.52841 145.488 7.33807 144.863 7.33807C144.119 7.33807 143.536 7.57102 143.116 8.03693C142.701 8.49716 142.494 9.09659 142.494 9.83523V18H139.468V9.5625C139.468 8.88636 139.263 8.34659 138.854 7.94318C138.451 7.53977 137.923 7.33807 137.269 7.33807C136.826 7.33807 136.423 7.4517 136.059 7.67898C135.695 7.90057 135.406 8.21591 135.19 8.625C134.974 9.02841 134.866 9.5 134.866 10.0398V18H131.781ZM153.268 22.9091C152.848 22.9091 152.459 22.875 152.101 22.8068C151.749 22.7443 151.467 22.6705 151.257 22.5852L151.973 20.1818C152.422 20.3125 152.822 20.375 153.175 20.3693C153.527 20.3636 153.837 20.2528 154.104 20.0369C154.376 19.8267 154.607 19.4744 154.794 18.9801L155.058 18.2727L150.311 4.90909H153.584L156.601 14.7955H156.737L159.763 4.90909H163.044L157.803 19.5852C157.558 20.2784 157.234 20.8722 156.831 21.3665C156.428 21.8665 155.933 22.2472 155.348 22.5085C154.768 22.7756 154.075 22.9091 153.268 22.9091Z" fill="white"/>
<defs>
<linearGradient id="paint0_linear_51_273" x1="0" y1="10" x2="97.2259" y2="13.3755" gradientUnits="userSpaceOnUse">
<stop stop-color="#CA5B26"/>
<stop offset="1" stop-color="#793714"/>
</linearGradient>
</defs>
</svg>
