<svg width="80" height="106" viewBox="0 0 80 106" fill="none" xmlns="http://www.w3.org/2000/svg">
<path fill-rule="evenodd" clip-rule="evenodd" d="M63.2425 39.7566L79.5535 48.4271L69.6023 57.2868L69.6507 57.3132L79.5535 70.9131L69.6507 76.3178V89.9441L39.9423 105.815L10.2339 89.9441V76.3398L0.331055 70.9483L10.1634 57.4145L0.331055 48.7616L16.8225 39.7698C16.3472 41.4027 15.9555 43.326 15.7442 45.3682L7.95842 49.611L13.1563 54.1883L15.9027 52.6699C16.1491 54.1619 16.5453 55.6275 17.1306 57.0007L13.5084 59.0077L40.0391 72.7572L66.3498 59.0297L62.776 57.0447C63.4142 55.7288 63.8543 54.3248 64.1404 52.89L66.4774 54.1795L71.9086 49.347L64.3956 45.355C64.1756 43.3128 63.7531 41.3939 63.2425 39.7566ZM42.1253 75.9217V99.6576L65.2583 87.3033V78.7165L49.8451 87.1229L42.1253 75.9217ZM14.6307 78.7341V87.3033L37.7329 99.6444V75.9305L30.0395 87.1229L14.6307 78.7341ZM6.8317 69.4783L28.6619 81.3616L33.4989 74.3241L11.5674 62.96L6.8317 69.4783ZM46.3945 74.3637L51.2183 81.3616L73.0485 69.4519L68.326 62.96L46.3945 74.3637ZM41.1174 66.9212H38.3667L38.3799 54.9145H41.1306L41.1174 66.9212ZM36.0164 60.6538H33.2656L33.3052 53H36.056L36.0164 60.6538ZM46.3945 60.5922H43.6394L43.5997 53H46.3505L46.3945 60.5922ZM32.7771 49.7299L31.3775 46.4993C28.1558 47.6833 21.8928 56.5518 21.8928 56.5518C16.6333 45.0777 22.6014 35.2233 27.3635 31.6451C26.9982 28.5687 24.5291 13.3007 39.7618 0.339041L39.9423 0.184998L40.1228 0.339041C55.3599 13.3007 52.8908 28.5687 52.5211 31.6451C57.2876 35.2233 63.2513 45.0777 57.9918 56.5518C57.9918 56.5518 51.7288 47.6833 48.5071 46.4993L47.1119 49.7299L39.9423 49.7519L32.7771 49.7299ZM39.9423 6.07387C35.1317 10.1362 29.2385 21.0073 31.7824 33.4628C28.5871 36.1036 24.8284 39.8623 24.2474 47.0583C26.787 43.6693 30.4928 41.7328 33.4505 41.0902C33.4505 41.0902 35.3166 44.532 35.6819 45.3726L39.9423 45.3858L44.2071 45.3726C44.5724 44.532 46.4385 41.0902 46.4385 41.0902C49.3918 41.7328 53.0976 43.6693 55.6416 47.0583C55.0562 39.8623 51.3856 36.1784 48.1902 33.5377C50.7694 21.5575 44.7969 10.2331 39.9995 6.12228L39.9423 6.07387ZM39.7486 31.1302C38.4987 31.1258 37.482 30.1135 37.482 28.8591C37.482 27.6048 38.4987 26.5925 39.7486 26.5925C40.9986 26.5925 42.0109 27.6048 42.0109 28.8591C42.0109 30.1135 40.9986 31.1258 39.7486 31.1302ZM39.7486 23.0143C37.2443 23.0143 35.2198 20.9809 35.2154 18.4766C35.2198 15.9679 37.2443 13.9389 39.7486 13.9389C42.253 13.9389 44.2775 15.9679 44.2775 18.4766C44.2775 20.9809 42.253 23.0099 39.7486 23.0143ZM39.7486 16.7029C40.6905 16.7029 41.4563 17.4687 41.4563 18.415C41.4563 19.3612 40.6905 20.1271 39.7486 20.1271C38.8024 20.1271 38.0366 19.3612 38.0366 18.415C38.0366 17.4687 38.8024 16.7029 39.7486 16.7029Z" fill="white"/>
</svg>
