<svg width="102" height="106" viewBox="0 0 102 106" fill="none" xmlns="http://www.w3.org/2000/svg">
<path d="M24.9827 10.3864C21.3753 10.3864 18.4404 13.3213 18.4404 16.9287C18.4404 20.5361 21.3753 23.4712 24.9827 23.4712C28.5902 23.4712 31.5252 20.5361 31.5252 16.9287C31.5252 13.3213 28.5902 10.3864 24.9827 10.3864ZM24.9827 20.3764C23.0817 20.3764 21.5352 18.8299 21.5352 16.9287C21.5352 15.0277 23.0817 13.4812 24.9827 13.4812C26.8839 13.4812 28.4305 15.0277 28.4305 16.9287C28.4303 18.8299 26.8837 20.3764 24.9827 20.3764Z" fill="white"/>
<path d="M31.524 46.234V40.2527C31.524 39.3979 30.8314 38.7053 29.9766 38.7053H14.2153C13.3606 38.7053 12.668 39.3979 12.668 40.2527V46.234C12.668 47.0888 13.3606 47.7814 14.2153 47.7814H29.9768C30.8314 47.7814 31.524 47.0888 31.524 46.234ZM28.4293 44.6866H15.7627V41.8001H28.4295V44.6866H28.4293Z" fill="white"/>
<path d="M96.7535 13.0279H86.9314C85.2209 13.0279 83.729 13.9798 82.9562 15.3813H41.7286V14.4003C41.7286 13.6685 41.2162 13.037 40.5 12.8862L36.7294 12.0923C36.7226 12.0758 36.7158 12.0592 36.7088 12.0427L38.8138 8.81513C39.2136 8.20217 39.1293 7.39299 38.6118 6.87576L35.0362 3.29989C34.5187 2.78245 33.7098 2.69786 33.0966 3.09791L29.8688 5.20316C29.8523 5.19635 29.836 5.18954 29.8195 5.18253L29.0256 1.41169C28.8749 0.695564 28.2432 0.183075 27.5114 0.183075H22.4544C21.7226 0.183075 21.0911 0.695564 20.9402 1.41169L20.1463 5.18253C20.1298 5.18933 20.1135 5.19614 20.097 5.20316L16.8694 3.09791C16.2565 2.69807 15.4473 2.78286 14.9298 3.29989L11.354 6.87555C10.8365 7.3932 10.7524 8.20237 11.152 8.81513L13.2572 12.0429C13.2504 12.0595 13.2436 12.0758 13.2366 12.0923L9.46576 12.8862C8.74964 13.0368 8.23715 13.6685 8.23715 14.4003V15.3813H8.1961C4.09103 15.3813 0.750977 18.7212 0.750977 22.8265V70.9606C0.750977 75.0657 4.09082 78.4057 8.1961 78.4057H14.0584C14.8065 83.7974 19.5418 87.8909 24.9824 87.8909C26.5867 87.8909 28.1103 87.5439 29.4869 86.9258L25.9871 100.62C24.5974 106.057 33.2596 107.904 34.5946 102.683L40.7994 78.4062H45.837V101.651C45.837 103.917 47.7374 105.817 50.0027 105.817C52.2685 105.817 54.1685 103.917 54.1685 101.651V78.4057H59.2065L65.411 102.682C66.7449 107.902 75.4087 106.058 74.0185 100.619L68.3416 78.4057H91.81C95.9151 78.4057 99.2551 75.0659 99.2551 70.9606V37.5263C99.2551 36.6715 98.5625 35.9789 97.7077 35.9789C96.853 35.9789 96.1604 36.6715 96.1604 37.5263V70.9606C96.1604 73.3595 94.2088 75.311 91.81 75.311L35.9056 75.3112C35.1507 69.9581 30.5412 65.826 24.9826 65.826C19.5418 65.826 14.8067 69.9187 14.0586 75.311H8.1961C5.79726 75.311 3.84572 73.3595 3.84572 70.9606V26.0178H10.9083C10.9382 26.372 11.0876 26.7157 11.354 26.9821L14.9298 30.5577C15.4471 31.0748 16.2558 31.1596 16.8692 30.7597L20.0968 28.6545C20.1133 28.6613 20.1298 28.6681 20.1463 28.6751L20.9402 32.446C21.0908 33.1621 21.7226 33.6746 22.4544 33.6746H27.5114C28.2432 33.6746 28.8747 33.1621 29.0256 32.446L29.8195 28.6751C29.836 28.6683 29.8525 28.6615 29.869 28.6545L33.0966 30.7597C33.71 31.1598 34.5191 31.075 35.0362 30.5577L38.6118 26.9821C38.8782 26.7157 39.0273 26.372 39.0573 26.0178H81.8406L67.4156 40.4428L60.0064 33.0356C58.8531 31.8773 56.937 31.878 55.7821 33.0333L50.972 37.8432C50.3675 38.4475 50.3675 39.4273 50.9718 40.0314C51.5761 40.6355 52.5559 40.6359 53.16 40.0316L57.8931 35.2989L65.3046 42.7085C66.4585 43.8616 68.3737 43.8651 69.5268 42.7083L90.5851 21.6498C91.0276 21.2071 91.1599 20.5417 90.9204 19.9634C90.681 19.3851 90.1166 19.0082 89.4908 19.0082H86.931C85.0701 19.0082 85.0719 16.1226 86.931 16.1226H96.7531C97.5262 16.1226 98.1553 16.7507 98.1553 17.5225V27.3446C98.1553 28.1325 97.499 28.7886 96.7112 28.7886C95.9153 28.7886 95.2674 28.1408 95.2674 27.3446V24.7871C95.2674 24.1613 94.8905 23.5968 94.3122 23.3575C93.7339 23.1176 93.0685 23.2502 92.626 23.6928L67.4166 48.9001L60.0043 41.4896C58.8419 40.3276 56.949 40.327 55.7819 41.4898L43.0825 54.1912C41.7825 55.4933 39.7243 53.4685 41.0424 52.1493L48.0031 45.1891C48.6074 44.5846 48.6074 43.605 48.0031 43.0007C47.3988 42.3968 46.419 42.3964 45.8149 43.0007L38.8542 49.9609C37.0513 51.7644 37.1253 54.7727 38.9871 56.5014C40.7497 58.1381 43.5723 58.0815 45.2721 56.3786L57.8933 43.7556L65.3048 51.165C66.4538 52.3179 68.3764 52.322 69.5268 51.1671L92.2965 28.3993C92.7731 30.3952 94.5717 31.8837 96.7114 31.8837C99.1835 31.8837 101.25 29.8177 101.25 27.345V17.5225C101.25 15.044 99.233 13.0279 96.7535 13.0279ZM31.5963 101.916C31.2532 103.259 28.5956 102.911 28.9857 101.386L33.4486 83.9239C34.7368 82.3831 35.6118 80.4871 35.9054 78.4059H37.6052L31.5963 101.916ZM51.0739 101.651C51.0739 103.029 48.9318 103.031 48.9318 101.651V78.4057H51.0739V101.651ZM71.0204 101.386C71.4095 102.907 68.7527 103.257 68.4098 101.916L62.4011 78.4057H65.1474L71.0204 101.386ZM23.1909 69.123C23.7761 68.9889 24.3789 68.9208 24.9826 68.9208C29.3594 68.9208 32.92 72.4801 32.9214 76.8557L32.9212 76.8584L32.9214 76.8611C32.92 81.2366 29.3592 84.796 24.9826 84.796C20.6396 84.796 17.045 81.1976 17.045 76.8582C17.045 73.1377 19.573 69.9567 23.1909 69.123ZM3.84572 22.8265C3.84572 20.4276 5.79726 18.4761 8.1961 18.4761H8.23715V19.4573C8.23715 20.1891 8.74964 20.8207 9.46576 20.9715L13.2366 21.7654C13.2434 21.7819 13.2502 21.7982 13.2572 21.8147L12.5343 22.923H3.84572V22.8265ZM33.7355 27.4814L30.8449 25.5958C29.7951 24.9117 27.2213 25.9916 26.9665 27.203L26.2558 30.5794H23.71L22.9993 27.203C22.7414 25.9767 20.1577 24.9198 19.1209 25.5958L16.2302 27.4814L14.4299 25.6813L16.3155 22.7906C16.9994 21.741 15.9199 19.167 14.7085 18.9122L11.3319 18.2015V15.656L14.7085 14.9452C15.935 14.6873 16.9911 12.1036 16.3155 11.0669L14.4299 8.17617L16.2302 6.37586L19.1209 8.26138C20.1705 8.94552 22.7445 7.86587 22.9993 6.65438L23.7102 3.27782H26.256L26.9667 6.65438C27.2246 7.88073 29.8083 8.93727 30.8451 8.26138L33.7358 6.37586L35.5359 8.17617L33.6503 11.0669C32.966 12.1162 34.0463 14.6906 35.2575 14.9452L38.6339 15.656V18.2017L35.2575 18.9124C34.0314 19.1701 32.9742 21.7542 33.6503 22.7908L35.5359 25.6815L33.7355 27.4814ZM85.8778 21.9806L84.9356 22.9228H37.4315L36.7088 21.8147C36.7156 21.7982 36.7224 21.7817 36.7294 21.7652L40.5 20.9713C41.2162 20.8207 41.7286 20.1889 41.7286 19.4571V18.4759H82.4866C82.8324 20.1827 84.1827 21.5797 85.8778 21.9806Z" fill="white"/>
<path d="M88.2878 64.9694H58.9614C58.1067 64.9694 57.4141 65.662 57.4141 66.5167C57.4141 67.3715 58.1067 68.0641 58.9614 68.0641H88.2878C89.1426 68.0641 89.8352 67.3715 89.8352 66.5167C89.8352 65.662 89.1424 64.9694 88.2878 64.9694Z" fill="white"/>
<path d="M88.2873 58.1816H70.9009C70.0461 58.1816 69.3535 58.8742 69.3535 59.729C69.3535 60.5838 70.0461 61.2764 70.9009 61.2764H88.2873C89.1421 61.2764 89.8347 60.5838 89.8347 59.729C89.8347 58.8742 89.1419 58.1816 88.2873 58.1816Z" fill="white"/>
<path d="M14.2153 50.5634C13.3606 50.5634 12.668 51.256 12.668 52.1108C12.668 52.9656 13.3606 53.6582 14.2153 53.6582H24.9817C25.8365 53.6582 26.5291 52.9656 26.5291 52.1108C26.5291 51.256 25.8365 50.5634 24.9817 50.5634H14.2153Z" fill="white"/>
<path d="M24.9839 80.4922C25.8387 80.4922 26.5313 79.7996 26.5313 78.9448V74.7715C26.5313 73.9167 25.8387 73.2241 24.9839 73.2241C24.1291 73.2241 23.4365 73.9167 23.4365 74.7715V78.9448C23.4365 79.7994 24.1291 80.4922 24.9839 80.4922Z" fill="white"/>
</svg>
