<svg width="106" height="106" viewBox="0 0 106 106" fill="none" xmlns="http://www.w3.org/2000/svg">
<g clip-path="url(#clip0_887_173)">
<path d="M63.0069 37.0027C48.5537 25.0999 27.1114 27.175 15.209 41.628C9.44297 48.6295 6.74874 57.4572 7.62226 66.485C8.496 75.5128 12.8329 83.6601 19.8343 89.426C22.9414 91.9848 26.4262 93.9512 30.1927 95.2698C30.9998 95.5532 31.8826 95.1272 32.1646 94.3207C32.4471 93.514 32.022 92.631 31.2156 92.3488C27.7943 91.1507 24.627 89.3634 21.8019 87.0371C15.4386 81.7965 11.497 74.3919 10.7031 66.1869C9.90924 57.982 12.358 49.9589 17.5981 43.5956C28.4161 30.4597 47.9038 28.5744 61.0395 39.3918C67.4026 44.6322 71.3442 52.0369 72.1383 60.2418C72.9322 68.4468 70.4835 76.4699 65.2434 82.833C58.4229 91.1148 47.9931 95.2186 37.3422 93.8089C36.4957 93.6972 35.7171 94.2929 35.6051 95.1402C35.4931 95.9875 36.0891 96.7651 36.9364 96.8773C38.4149 97.0727 39.9028 97.1699 41.3903 97.1699C45.5506 97.1699 49.702 96.4098 53.5949 94.919C59.0461 92.8313 63.9003 89.3323 67.6325 84.8004C73.3985 77.7992 76.0927 68.9715 75.219 59.9437C74.3455 50.916 70.0084 42.7685 63.0069 37.0027Z" fill="white"/>
<path d="M55.8778 48.2152C56.4489 47.5218 56.3497 46.497 55.6562 45.9259C54.9628 45.3551 53.9381 45.4541 53.367 46.1475C52.7961 46.8409 52.8952 47.8657 53.5886 48.4368C54.282 49.0076 55.307 48.9084 55.8778 48.2152Z" fill="white"/>
<path d="M27.1355 80.5603C27.8289 81.1314 28.8536 81.0321 29.4247 80.3387C29.9958 79.6453 29.8965 78.6205 29.2031 78.0495C28.5097 77.4784 27.485 77.5776 26.9139 78.271C26.343 78.9643 26.4421 79.9892 27.1355 80.5603Z" fill="white"/>
<path d="M56.203 75.4367C55.632 76.1301 55.7312 77.1551 56.4246 77.726C57.118 78.297 58.1428 78.1978 58.7139 77.5044C59.2849 76.811 59.1857 75.7862 58.4923 75.2151C57.7989 74.6443 56.7739 74.7433 56.203 75.4367Z" fill="white"/>
<path d="M26.3673 48.7601C25.6739 48.189 24.6491 48.2882 24.078 48.9816C23.507 49.6751 23.6062 50.6998 24.2996 51.2709C24.993 51.8419 26.0178 51.7427 26.5889 51.0493C27.1597 50.3561 27.0605 49.3311 26.3673 48.7601Z" fill="white"/>
<path d="M62.2635 62.8576C63.1574 62.7712 63.812 61.9763 63.7256 61.0823C63.6392 60.1884 62.8442 59.5337 61.9503 59.6202C61.0563 59.7066 60.4017 60.5015 60.4881 61.3955C60.5746 62.2897 61.3695 62.9443 62.2635 62.8576Z" fill="white"/>
<path d="M20.5284 63.6284C19.6344 63.7149 18.9798 64.5098 19.0663 65.4037C19.1527 66.2977 19.9476 66.9523 20.8416 66.8659C21.7355 66.7794 22.3902 65.9845 22.3037 65.0905C22.2173 64.1966 21.4226 63.542 20.5284 63.6284Z" fill="white"/>
<path d="M43.2432 82.335C42.3491 82.4214 41.6947 83.2164 41.7811 84.1103C41.8675 85.0043 42.6625 85.6589 43.5564 85.5725C44.4504 85.486 45.105 84.6911 45.0186 83.7971C44.9321 82.9032 44.1372 82.2486 43.2432 82.335Z" fill="white"/>
<path d="M41.0107 42.3757C40.9243 41.4818 40.1294 40.8271 39.2354 40.9136C38.3415 41 37.6868 41.7949 37.7733 42.6889C37.7902 42.863 37.8346 43.0277 37.9006 43.1799L39.8797 63.3652C39.9387 63.9674 40.3433 64.4801 40.9154 64.6773L54.9315 69.5087C55.0986 69.5661 55.2686 69.5935 55.4359 69.5935C56.078 69.5935 56.6779 69.191 56.8991 68.55C57.1776 67.7419 56.7483 66.8611 55.9404 66.5826L42.8632 62.0747L40.9812 42.8783C41.0159 42.7176 41.0275 42.5486 41.0107 42.3757Z" fill="white"/>
<path d="M96.1776 10.945C95.5182 10.4018 94.5428 10.4961 93.9993 11.1559L87.6129 18.9105C87.3004 19.2901 86.7369 19.3444 86.3571 19.0314L86.3169 18.9982C85.9375 18.6856 85.8828 18.1226 86.1956 17.743L86.8603 16.9355C87.5374 16.1135 87.8537 15.077 87.7512 14.017C87.6486 12.957 87.1394 12.0005 86.3173 11.3236C85.4951 10.6465 84.4582 10.3304 83.399 10.4329C82.339 10.5355 81.3823 11.0446 80.7056 11.8668L74.9777 18.8218L72.289 16.6077C71.7506 16.1643 71.0712 15.958 70.3778 16.0242C69.6835 16.0915 69.0572 16.4249 68.6138 16.9631L66.6254 19.3776C64.5942 18.5584 62.1783 19.1018 60.7135 20.8802L58.9955 22.9664C57.9846 24.1946 56.3041 24.6768 54.8148 24.1657C46.9807 21.4797 38.5982 21.2109 30.5728 23.3888C22.3671 25.6157 15.147 30.2584 9.69273 36.8148C2.65024 45.28 -0.661489 56.0165 0.367599 67.0464C1.39648 78.0736 6.63517 88.0094 15.1188 95.0232C22.5893 101.2 31.7764 104.493 41.3446 104.493C42.6749 104.493 44.0143 104.429 45.3557 104.3C56.3454 103.248 66.2624 97.9747 73.2806 89.4528C78.7308 82.8351 81.9463 74.8331 82.5799 66.3125C83.1991 57.9823 81.3274 49.7706 77.1669 42.5657C76.3848 41.2117 76.5397 39.476 77.5517 38.247L79.2694 36.1614C80.8554 34.2354 80.8063 31.4921 79.287 29.6279L81.1884 27.3192C81.6319 26.7807 81.8391 26.102 81.7718 25.4077C81.7048 24.7135 81.3711 24.0871 80.8329 23.6438L77.3668 20.7894L83.0947 13.8344C83.2459 13.6506 83.4601 13.5367 83.6969 13.5138C83.9354 13.4909 84.1659 13.5615 84.3497 13.7131C84.5335 13.8645 84.6474 14.0785 84.6703 14.3155C84.6932 14.5526 84.6226 14.7845 84.471 14.9683L83.806 15.7758C82.4087 17.4729 82.6521 19.9904 84.3499 21.3883L84.3901 21.4216C86.0872 22.8187 88.6047 22.5753 90.002 20.8785L96.3882 13.1239C96.9319 12.4635 96.8374 11.4882 96.1776 10.945ZM76.9622 27.5825L74.1908 25.3C73.5315 24.757 72.556 24.8511 72.0126 25.5109C71.4692 26.1707 71.5637 27.1459 72.2234 27.6891L76.5995 31.293C77.4768 32.0153 77.6026 33.3165 76.8805 34.1936L75.163 36.2794C73.3346 38.4993 73.0631 41.6476 74.4869 44.1133C78.3354 50.7778 80.0666 58.3747 79.4937 66.0827C78.908 73.9622 75.9336 81.3631 70.8919 87.485C64.4001 95.3678 55.2264 100.245 45.0609 101.219C34.8955 102.192 24.9623 99.1454 17.0915 92.6376C9.24627 86.1516 4.40163 76.961 3.44971 66.7586C2.49757 56.5537 5.55987 46.6223 12.0721 38.7939C17.1175 32.7292 23.7954 28.435 31.3836 26.3758C38.8094 24.3605 46.5647 24.6087 53.8109 27.0933C56.514 28.0207 59.5577 27.1527 61.385 24.9338L63.1028 22.8476C63.8253 21.9706 65.1265 21.8445 66.0035 22.5668L67.568 23.8552C68.2278 24.3982 69.2032 24.3044 69.7462 23.6444C70.2897 22.9846 70.1952 22.0093 69.5354 21.4659L69.1655 21.1614L70.6951 19.3042L78.4916 25.725L76.9622 27.5825Z" fill="white"/>
<path d="M104.267 10.4142H100.524C99.6694 10.4142 98.9766 11.107 98.9766 11.9617C98.9766 12.8165 99.6694 13.5093 100.524 13.5093H104.267C105.122 13.5093 105.815 12.8165 105.815 11.9617C105.815 11.107 105.122 10.4142 104.267 10.4142Z" fill="white"/>
<path d="M95.6335 1.50722C94.7787 1.50722 94.0859 2.20002 94.0859 3.05477V6.7979C94.0859 7.65266 94.7787 8.34545 95.6335 8.34545C96.4883 8.34545 97.181 7.65266 97.181 6.7979V3.05477C97.181 2.20002 96.4883 1.50722 95.6335 1.50722Z" fill="white"/>
<path d="M100.524 8.34546C100.92 8.34546 101.316 8.19423 101.618 7.89219L104.265 5.24541C104.87 4.64091 104.87 3.66113 104.266 3.05684C103.661 2.45276 102.681 2.45234 102.077 3.05684L99.43 5.70363C98.8255 6.30812 98.8255 7.2879 99.4298 7.89219C99.7322 8.19423 100.128 8.34546 100.524 8.34546Z" fill="white"/>
</g>
<defs>
<clipPath id="clip0_887_173">
<rect width="105.632" height="105.632" fill="white" transform="translate(0.183594 0.183929)"/>
</clipPath>
</defs>
</svg>
