<svg width="50" height="50" viewBox="0 0 50 50" fill="none" xmlns="http://www.w3.org/2000/svg">
<path d="M39.7461 0H10.2539C4.5999 0 0 4.5999 0 10.2539V39.7461C0 45.4001 4.5999 50 10.2539 50H39.7461C45.4001 50 50 45.4001 50 39.7461V10.2539C50 4.5999 45.4001 0 39.7461 0ZM47.0703 39.7461C47.0703 43.7847 43.7847 47.0703 39.7461 47.0703H10.2539C6.21533 47.0703 2.92969 43.7847 2.92969 39.7461V10.2539C2.92969 6.21533 6.21533 2.92969 10.2539 2.92969H39.7461C43.7847 2.92969 47.0703 6.21533 47.0703 10.2539V39.7461Z" fill="white"/>
<path d="M29.8482 12.0637C29.6794 11.4338 29.2755 10.9072 28.7107 10.5813C27.5451 9.90821 26.049 10.3089 25.3758 11.4749L25 12.1257L24.6242 11.4748C23.9511 10.3091 22.4551 9.90821 21.2893 10.5812H21.2892C20.1233 11.2543 19.7226 12.7503 20.3956 13.9162L22.1809 17.0084L15.5936 28.4181H10.791C9.44482 28.4181 8.34961 29.5133 8.34961 30.8595C8.34961 32.2057 9.44482 33.3009 10.791 33.3009H29.332L26.5129 28.4181H21.2317L29.6043 13.9163C29.9304 13.3516 30.0171 12.6936 29.8482 12.0637Z" fill="white"/>
<path d="M39.2092 28.4179H34.4066L28.947 18.9614L26.1279 23.8442L34.6049 38.5267C34.931 39.0915 35.4573 39.4955 36.0874 39.6644C36.2978 39.7207 36.5111 39.7486 36.7232 39.7486C37.1463 39.7486 37.5639 39.6377 37.9401 39.4204C39.106 38.7473 39.5067 37.2512 38.8336 36.0854L37.2257 33.3007H39.2092C40.5554 33.3007 41.6506 32.2055 41.6506 30.8593C41.6506 29.5131 40.5554 28.4179 39.2092 28.4179Z" fill="white"/>
<path d="M11.6466 35.2539L11.1664 36.0855C10.4934 37.2514 10.8942 38.7475 12.0601 39.4205C12.4436 39.6419 12.8627 39.7472 13.2767 39.7471C14.121 39.7471 14.9434 39.3092 15.3951 38.5269L17.2848 35.2539H11.6466Z" fill="white"/>
</svg>
