<svg width="50" height="40" viewBox="0 0 50 40" fill="none" xmlns="http://www.w3.org/2000/svg">
<path d="M36.7188 0.957031C32.1392 0.957031 27.6551 2.43418 27.4673 2.49678C27.4254 2.51064 23.2333 3.88672 19.1406 3.88672C15.3178 3.88672 9.38076 2.79561 5.85938 2.10469V11.946C3.08223 11.5205 1.39785 11.1686 0 10.8938V37.3173C3.66064 38.0355 9.39297 39.043 13.2812 39.043C17.8608 39.043 22.3449 37.5658 22.5327 37.5032C22.5746 37.4894 26.7667 36.1133 30.8594 36.1133C34.6822 36.1133 40.6192 37.2044 44.1406 37.8953V28.0459C46.7878 28.4545 48.3343 28.7786 50 29.1108V2.68271L48.8187 2.44951C48.5101 2.38867 41.2049 0.957031 36.7188 0.957031ZM41.2109 34.3537C38.7072 33.9142 34.0641 33.1836 30.8594 33.1836C26.2798 33.1836 21.7957 34.6607 21.6079 34.7233C21.566 34.7372 17.3739 36.1133 13.2812 36.1133C10.1036 36.1133 5.17217 35.2984 2.92969 34.8958V14.4354C5.4334 14.8749 10.0766 15.6055 13.2812 15.6055C17.8608 15.6055 22.3449 14.1283 22.5327 14.0657C22.5746 14.0519 26.7667 12.6758 30.8594 12.6758C34.037 12.6758 38.9685 13.4906 41.2109 13.8933V34.3537ZM47.0703 25.5616C46.2736 25.4205 45.2587 25.2497 44.1406 25.0823V11.4718L42.9594 11.2386C42.6507 11.1777 35.3455 9.74609 30.8594 9.74609C26.2798 9.74609 21.7957 11.2232 21.6079 11.2858C21.566 11.2997 17.3739 12.6758 13.2812 12.6758C11.977 12.6758 10.3771 12.5385 8.78906 12.3487V5.64629C11.2928 6.08584 15.9359 6.81641 19.1406 6.81641C23.7202 6.81641 28.2043 5.33926 28.3921 5.27666C28.434 5.26279 32.6261 3.88672 36.7188 3.88672C39.8964 3.88672 44.8278 4.70156 47.0703 5.1042V25.5616Z" fill="white"/>
<path d="M22.0703 18.5352C18.8395 18.5352 16.2109 21.1637 16.2109 24.3945C16.2109 27.6254 18.8395 30.2539 22.0703 30.2539C25.3012 30.2539 27.9297 27.6254 27.9297 24.3945C27.9297 21.1637 25.3012 18.5352 22.0703 18.5352ZM22.0703 27.3242C20.4549 27.3242 19.1406 26.01 19.1406 24.3945C19.1406 22.7791 20.4549 21.4648 22.0703 21.4648C23.6857 21.4648 25 22.7791 25 24.3945C25 26.01 23.6857 27.3242 22.0703 27.3242Z" fill="white"/>
<path d="M29.2676 15.6775L29.5205 18.5963C29.9887 18.5557 30.439 18.5352 30.8589 18.5352C32.1424 18.5352 34.0957 18.7203 36.5077 19.0707L36.9289 16.1715C34.3434 15.7959 32.3012 15.6055 30.8589 15.6055C30.3549 15.6055 29.8194 15.6298 29.2676 15.6775Z" fill="white"/>
<path d="M13.281 30.2538C11.9721 30.2538 9.87754 30.0586 7.53447 29.7183L7.11328 32.6175C8.56855 32.8289 11.3049 33.1835 13.281 33.1835C13.785 33.1835 14.3204 33.1592 14.8723 33.1114L14.6193 30.1927C14.1512 30.2333 13.7009 30.2538 13.281 30.2538Z" fill="white"/>
</svg>
