<svg width="42" height="50" viewBox="0 0 42 50" fill="none" xmlns="http://www.w3.org/2000/svg">
<path d="M41.4186 28.3916L41.1977 24.4518L38.7925 27.58C38.601 27.829 38.1933 28.2695 37.6728 28.671C37.8784 27.9896 38.062 27.2124 38.1834 26.3552C38.6035 23.3866 38.3419 18.8305 34.7111 13.9828L33.1877 11.9488L32.1895 14.2858C31.038 16.9815 29.1749 18.334 27.4434 17.7312C26.1104 17.2673 25.0269 15.7417 24.471 13.5453C23.9525 11.4967 23.6512 7.8917 25.1609 2.35107L25.8016 0L23.4243 0.535547C15.4053 2.34199 10.0017 8.03672 7.79736 17.0039C6.8708 20.7733 6.69629 24.3445 6.72227 26.76C4.82754 25.2281 3.88135 23.8841 3.85654 23.8485L2.05176 21.197L1.22969 24.3017C0.777832 26.0081 0.548828 27.7734 0.548828 29.5486C0.548828 40.7413 9.58692 49.861 20.748 49.9969C20.8318 49.999 20.9159 50.0001 21.0003 50.0001C21.0847 50.0001 21.1688 49.999 21.2526 49.9969C32.4138 49.861 41.4518 40.7413 41.4518 29.5486C41.4518 29.1741 41.4406 28.7848 41.4186 28.3916ZM21.0004 47.0679C17.2176 47.0679 14.1401 43.9904 14.1401 40.2077C14.1401 33.6063 17.2619 30.6491 19.6953 29.3467C19.3853 31.0227 19.6602 32.6107 20.1767 33.7932C20.9465 35.5554 22.3201 36.7097 23.8513 36.8808C24.4527 36.9478 25.4595 36.8959 26.5147 36.128C27.3807 37.3 27.8605 38.7297 27.8605 40.2077C27.8605 43.9905 24.783 47.0679 21.0004 47.0679ZM29.6615 44.7721C30.3831 43.4083 30.7927 41.855 30.7927 40.2077C30.7927 37.4316 29.6072 34.7751 27.5404 32.9194L26.3381 31.84L25.3803 33.1413C25.1364 33.4727 24.6554 34.0213 24.1772 33.9669C23.7979 33.9245 23.2446 33.4914 22.8638 32.6194C22.3371 31.4141 22.2303 29.5084 23.5092 27.7754L25.5387 25.0251L22.1473 25.4501C22.0329 25.4645 19.3156 25.8243 16.6212 27.8494C12.1475 31.2117 11.2083 36.4257 11.2083 40.2077C11.2083 41.8554 11.618 43.409 12.3399 44.7729C7.05303 41.7535 3.48135 36.0605 3.48135 29.5485C3.48135 28.9931 3.50752 28.4389 3.55947 27.888C4.54824 28.8248 5.88867 29.9159 7.59522 30.9284L10.1428 32.4389L9.79932 29.4966C9.79268 29.4395 9.15049 23.7173 10.6635 17.6294C12.3935 10.6676 16.1136 6.11904 21.7381 4.0752C20.9537 7.94844 20.9123 11.4342 21.6288 14.2648C22.431 17.434 24.1992 19.7068 26.4802 20.5004C28.0658 21.052 29.7746 20.847 31.2925 19.923C32.1662 19.3912 32.9566 18.6343 33.6361 17.6866C35.104 20.3078 35.6625 23.0343 35.2978 25.8171C34.9527 28.4494 33.8693 30.1691 33.862 30.1807L32.6078 32.1048L34.8812 32.4323C36.0257 32.5972 37.2209 32.3455 38.3883 31.7012C37.6988 37.3008 34.3563 42.0904 29.6615 44.7721Z" fill="white"/>
</svg>
