<svg width="50" height="50" viewBox="0 0 50 50" fill="none" xmlns="http://www.w3.org/2000/svg">
<path d="M14.7461 41.1133C14.7461 39.4254 14.0277 37.9028 12.8818 36.8327L12.8824 36.8246C12.9862 35.3904 13.0703 33.8785 13.1342 32.3185C16.1335 32.8835 18.2588 34.0207 19.4619 35.7099C21.0133 37.8878 20.6001 40.4457 20.4365 41.1777C19.8912 43.6183 21.3364 46.0906 23.7847 46.5609C25.1997 46.8327 26.6118 46.9685 28.0145 46.9685C32.9325 46.9685 37.8645 45.2876 41.936 41.9247C47.059 37.6933 49.9982 31.5246 49.9999 25.0005C50.0034 12.6351 39.2489 2.54688 28.0179 2.9501C21.8816 3.17051 16.367 6.19336 12.5647 9.5207C12.5161 9.06728 12.4652 8.62578 12.412 8.19766C12.1331 5.95332 11.8036 4.17422 11.4327 2.90967C11.1774 2.03896 10.5794 0 8.88672 0C7.19404 0 6.596 2.03896 6.34072 2.90967C5.96982 4.17422 5.64043 5.95332 5.36143 8.19766C4.80088 12.7079 4.49219 18.6751 4.49219 25C4.49219 29.1322 4.63008 33.2211 4.89102 36.8245L4.8916 36.8327C3.7457 37.9028 3.02734 39.4254 3.02734 41.1133V44.1406C3.02734 45.7287 1.64102 47.0703 0 47.0703V50H5.95703C10.7959 50 14.7461 45.9896 14.7461 41.1133ZM28.1229 5.87793C37.5615 5.53926 47.0733 14.1563 47.0703 24.9996C47.0687 30.6472 44.5174 35.9928 40.0704 39.6659C35.6757 43.2958 29.9409 44.7602 24.3374 43.6839C23.5218 43.5272 23.1116 42.6405 23.2958 41.8166C23.591 40.4951 24.0411 37.0889 21.8482 34.0102C20.1277 31.5946 17.2317 30.0336 13.2295 29.3599C13.2635 27.925 13.281 24.8908 13.281 24.8361C13.8518 25.5013 14.6078 25.9801 15.4728 26.2118C17.8186 26.8404 20.2292 25.4396 20.855 23.1044C21.4821 20.7638 20.0881 18.3494 17.7476 17.7223C15.9897 17.2513 14.2349 17.9147 13.1923 19.2031C13.1271 17.1222 13.0269 15.1261 12.894 13.2603C16.2088 9.7582 21.813 6.10459 28.1229 5.87793ZM15.1953 21.5878C15.4049 20.8058 16.2072 20.3424 16.9894 20.552C17.7695 20.761 18.2343 21.5658 18.0252 22.346C17.8161 23.1263 17.0109 23.5909 16.2311 23.3818C15.4491 23.1724 14.9857 22.37 15.1953 21.5878ZM8.12441 9.80879C8.37744 7.45098 8.64814 5.85283 8.88672 4.77715C9.12529 5.85283 9.396 7.45098 9.64902 9.80879C10.1021 14.0306 10.3516 19.4256 10.3516 25C10.3516 25.4893 10.3495 25.9777 10.3456 26.4648H7.42783C7.42393 25.9777 7.42188 25.4893 7.42188 25C7.42188 19.4256 7.67139 14.0306 8.12441 9.80879ZM7.4751 29.3936H10.2983C10.2481 31.4622 10.1627 33.474 10.044 35.3692C9.66973 35.2939 9.28281 35.2539 8.88672 35.2539C8.49063 35.2539 8.10371 35.2939 7.72939 35.3692C7.61084 33.474 7.52539 31.4623 7.4751 29.3936ZM5.95703 44.1406V41.1133C5.95703 39.4979 7.27129 38.1836 8.88672 38.1836C10.5021 38.1836 11.8164 39.4979 11.8164 41.1133C11.8164 44.3979 9.18789 47.0703 5.95703 47.0703H5.15078C5.67676 46.1874 5.95703 45.1842 5.95703 44.1406Z" fill="white"/>
<path d="M39.3233 19.821C41.0407 18.1037 41.0411 15.3238 39.3233 13.6061C37.6101 11.8927 34.822 11.8926 33.1085 13.6061C31.3911 15.3234 31.3907 18.1033 33.1085 19.821C34.8219 21.5343 37.6099 21.5344 39.3233 19.821ZM35.1801 15.6778C35.7513 15.1067 36.6805 15.1066 37.2518 15.6778C37.8243 16.2504 37.8243 17.1768 37.2518 17.7494C36.6804 18.3206 35.7513 18.3205 35.1801 17.7494C34.6076 17.1768 34.6075 16.2503 35.1801 15.6778Z" fill="white"/>
<path d="M26.0343 17.9254C28.3748 17.2983 29.769 14.8838 29.1418 12.5433C28.5145 10.2028 26.1 8.80873 23.7596 9.43588C21.4191 10.063 20.025 12.4775 20.6522 14.8181C21.2808 17.164 23.688 18.554 26.0343 17.9254ZM24.5179 12.2657C25.2997 12.0562 26.1034 12.5231 26.312 13.3014C26.5211 14.0816 26.0564 14.8865 25.2762 15.0954C24.4943 15.3049 23.6917 14.8418 23.4822 14.0597C23.273 13.2795 23.7376 12.4747 24.5179 12.2657Z" fill="white"/>
<path d="M26.7176 37.4569C27.344 39.794 29.7559 41.1924 32.0999 40.5642C34.4405 39.9371 35.8344 37.5226 35.2073 35.1821C34.5787 32.8365 32.1719 31.446 29.825 32.0747C27.4845 32.7018 26.0905 35.1163 26.7176 37.4569ZM30.5834 34.9045C31.3668 34.6945 32.1684 35.1597 32.3774 35.9402C32.5865 36.7205 32.1218 37.5253 31.3416 37.7343C30.5614 37.9434 29.7567 37.4786 29.5476 36.6986C29.3385 35.9183 29.8032 35.1135 30.5834 34.9045Z" fill="white"/>
<path d="M35.0047 26.8957C34.3776 29.2364 35.7716 31.6507 38.1121 32.278C40.4563 32.9061 42.8652 31.5184 43.4943 29.1706C44.1228 26.8247 42.7331 24.417 40.387 23.7884C38.0412 23.1595 35.6335 24.5495 35.0047 26.8957ZM40.6644 28.4123C40.4551 29.1941 39.6525 29.6577 38.8704 29.4481C38.0903 29.239 37.6256 28.4342 37.8347 27.654C38.0437 26.8736 38.8451 26.4082 39.6287 26.6182C40.4087 26.8272 40.8735 27.632 40.6644 28.4123Z" fill="white"/>
</svg>
