<svg width="50" height="50" viewBox="0 0 50 50" fill="none" xmlns="http://www.w3.org/2000/svg">
<path d="M49.9766 43.6054C49.8384 42.0418 49.0996 40.6256 47.8977 39.619C46.6617 38.5809 36.496 30.0427 35.2643 29.0081C37.0529 26.1075 38.0864 22.6938 38.0864 19.0431C38.0864 17.4316 37.8843 15.8666 37.5057 14.371L40.5873 11.2893C41.1612 11.5644 41.8033 11.7188 42.4809 11.7188C44.904 11.7188 46.8755 9.74744 46.8755 7.3242C46.8755 4.90097 44.9041 2.92968 42.481 2.92968C40.0578 2.92968 38.0864 4.90106 38.0864 7.3243C38.0864 8.00194 38.2408 8.64403 38.5159 9.21776L36.4377 11.2959C33.4641 4.64579 26.7863 0 19.0431 0C8.54276 0 0 8.54276 0 19.0432C0 29.5437 8.54276 38.0865 19.0432 38.0865C22.6939 38.0865 26.1075 37.053 29.0083 35.2645C30.0431 36.4966 38.585 46.6668 39.6243 47.9041C39.849 48.1687 40.0997 48.4189 40.3495 48.6281C41.417 49.5223 42.7367 50.0001 44.1127 50.0001C44.2877 50.0001 44.4638 49.9924 44.6403 49.9768C46.2038 49.8386 47.62 49.0997 48.628 47.8964C49.6358 46.693 50.1148 45.169 49.9766 43.6054ZM42.481 5.85946C43.2887 5.85946 43.9458 6.51659 43.9458 7.3243C43.9458 8.13202 43.2887 8.78914 42.481 8.78914C41.6733 8.78914 41.0162 8.13202 41.0162 7.3243C41.0162 6.51659 41.6732 5.85946 42.481 5.85946ZM19.0431 35.1762C10.1582 35.1762 2.91015 27.9477 2.91015 19.0628C2.91015 10.1778 10.1582 2.91015 19.0431 2.91015C25.9977 2.91015 31.9371 7.35858 34.1897 13.5438L29.7257 18.0078C29.152 17.7327 28.5099 17.5783 27.8323 17.5783C27.1546 17.5783 26.5126 17.7327 25.9388 18.0078L23.0084 15.0772C23.2834 14.5035 23.4378 13.8614 23.4378 13.1838C23.4378 10.7606 21.4664 8.78914 19.0431 8.78914C16.6199 8.78914 14.6485 10.7605 14.6485 13.1838C14.6485 13.8614 14.8029 14.5035 15.078 15.0772L12.1475 18.0078C11.5737 17.7327 10.9316 17.5783 10.254 17.5783C7.83085 17.5783 5.85937 19.5497 5.85937 21.9729C5.85937 24.396 7.83075 26.3675 10.254 26.3675C12.6771 26.3675 14.6486 24.3961 14.6486 21.9729C14.6486 21.2953 14.4942 20.6532 14.2191 20.0795L17.1496 17.1489C17.7234 17.424 18.3655 17.5784 19.0431 17.5784C19.7208 17.5784 20.3629 17.424 20.9366 17.1489L23.8671 20.0795C23.5921 20.6532 23.4377 21.2953 23.4377 21.9729C23.4377 24.396 25.409 26.3675 27.8323 26.3675C30.2555 26.3675 32.2269 24.3961 32.2269 21.9729C32.2269 21.2953 32.0725 20.6532 31.7974 20.0795L35.0091 16.8676C35.1057 17.5795 35.1566 18.3054 35.1566 19.0432C35.1567 27.9282 27.9282 35.1762 19.0431 35.1762ZM29.2972 21.9729C29.2972 22.7806 28.6401 23.4377 27.8324 23.4377C27.0247 23.4377 26.3675 22.7806 26.3675 21.9729C26.3675 21.1652 27.0247 20.5081 27.8324 20.5081C28.6401 20.5081 29.2972 21.1652 29.2972 21.9729ZM20.508 13.1838C20.508 13.9915 19.8508 14.6486 19.0431 14.6486C18.2354 14.6486 17.5783 13.9915 17.5783 13.1838C17.5783 12.3761 18.2354 11.7189 19.0431 11.7189C19.8508 11.7189 20.508 12.3761 20.508 13.1838ZM11.7188 21.9729C11.7188 22.7806 11.0617 23.4377 10.254 23.4377C9.44628 23.4377 8.78915 22.7806 8.78915 21.9729C8.78915 21.1652 9.44628 20.5081 10.254 20.5081C11.0617 20.5081 11.7188 21.1652 11.7188 21.9729ZM33.2643 35.7765L31.3822 33.5356C32.1557 32.876 32.8759 32.1558 33.5355 31.3823L35.7764 33.2644C35.0075 34.1679 34.1678 35.0075 33.2643 35.7765ZM46.3819 46.015C45.8765 46.6185 45.1663 46.989 44.3823 47.0582C43.5978 47.1274 42.834 46.8873 42.2304 46.3817C42.109 46.2801 41.973 46.1436 41.8623 46.0134L35.1496 38.021C36.183 37.1429 37.1429 36.1829 38.021 35.1495L46.0149 41.8636C46.6183 42.369 46.9888 43.0791 47.058 43.8632C47.1276 44.6474 46.8873 45.4115 46.3819 46.015Z" fill="white"/>
</svg>
